<?xml version="1.0" encoding="utf-8"?>
<!-- Generator: Adobe Illustrator 16.0.0, SVG Export Plug-In . SVG Version: 6.00 Build 0)  -->
<!DOCTYPE svg PUBLIC "-//W3C//DTD SVG 1.1//EN" "http://www.w3.org/Graphics/SVG/1.1/DTD/svg11.dtd">
<svg version="1.1" id="Layer_1" xmlns="http://www.w3.org/2000/svg" xmlns:xlink="http://www.w3.org/1999/xlink" x="0px" y="0px"
	 width="275px" height="275px" viewBox="0 0 275 275" enable-background="new 0 0 275 275" xml:space="preserve">
<g>
	<path fill-rule="evenodd" clip-rule="evenodd" fill="#004A74" d="M249.902,218.834c0,0.049,0.014,0.145,0.039,0.281
		c0.022,0.137,0.036,0.33,0.036,0.58c0,1.021-0.228,2.088-0.691,3.193c-0.46,1.111-1.328,2.041-2.598,2.787
		c-0.025,0-0.183,0.082-0.47,0.244c-0.283,0.16-0.747,0.324-1.379,0.486c-0.638,0.16-1.306,0.242-2.004,0.242
		c-1.741,0-3.536-0.486-5.383-1.459l-1.87-1.084c-0.123-0.1-0.286-0.148-0.485-0.148c-0.226,0-0.411,0.063-0.562,0.186
		c-0.146,0.127-0.248,0.287-0.296,0.486l-0.115,0.486h-0.486v-7.027h0.787l0.522,2.73c0.149,0.969,0.662,1.754,1.533,2.352
		c0,0,0.349,0.199,1.046,0.602c1.596,0.871,3.054,1.307,4.376,1.307c1.844,0,3.203-0.896,4.074-2.691
		c0.027-0.051,0.069-0.156,0.132-0.32c0.062-0.16,0.123-0.396,0.186-0.707c0.062-0.313,0.095-0.643,0.095-0.992
		c0-0.973-0.294-1.957-0.879-2.953c-0.587-0.998-1.602-1.922-3.046-2.77c-0.575-0.322-1.466-0.852-2.673-1.584
		c-1.209-0.738-1.95-1.205-2.226-1.402c-1.146-0.801-2.094-1.686-2.841-2.658c-0.747-0.971-1.148-2.094-1.196-3.363
		c0-1.82,0.534-3.389,1.607-4.711c1.07-1.32,2.877-1.98,5.419-1.98c0.127,0,0.43,0.023,0.916,0.072
		c0.487,0.049,1.123,0.17,1.909,0.355c0.784,0.186,1.612,0.467,2.486,0.842c0.146,0.074,0.323,0.113,0.522,0.113
		c0.299,0,0.561-0.094,0.785-0.279c0.227-0.189,0.362-0.418,0.412-0.695l0.075-0.447h0.486v5.984h-0.486l-0.227-1.16
		c-0.101-0.475-0.293-0.904-0.579-1.289c-0.284-0.389-0.641-0.68-1.064-0.879c-0.5-0.252-1.142-0.477-1.925-0.676
		c-0.786-0.199-1.566-0.297-2.34-0.297c-1.27,0-2.303,0.342-3.102,1.027c-0.797,0.686-1.197,1.828-1.197,3.42
		c0,1.172,0.293,2.082,0.88,2.73c0.584,0.646,1.172,1.139,1.756,1.479c0.587,0.336,0.952,0.551,1.102,0.652
		c0.376,0.199,0.986,0.549,1.834,1.047c0.849,0.5,1.534,0.898,2.057,1.197C247.949,214.088,249.629,216.316,249.902,218.834
		 M222.427,214.76l-3.253-8.375l-3.217,8.375H222.427z M232.184,225.34v0.486h-8.152v-0.486l0.822-0.15
		c0.273-0.049,0.512-0.193,0.711-0.432c0.199-0.234,0.301-0.5,0.301-0.801c0-0.15-0.039-0.301-0.115-0.449l-2.728-7.139h-7.663
		l-2.807,7.287c-0.022,0.076-0.034,0.178-0.034,0.301c0,0.301,0.084,0.561,0.261,0.787c0.172,0.221,0.397,0.361,0.672,0.41
		l0.86,0.186v0.486h-7.142v-0.486l0.598-0.111c0.624-0.1,1.175-0.346,1.647-0.73c0.474-0.385,0.822-0.863,1.044-1.439l9.125-23.74
		h0.186l9.088,23.705c0.222,0.549,0.564,1.021,1.026,1.42c0.46,0.396,0.988,0.648,1.589,0.746L232.184,225.34z M207.021,204.666
		l-0.261-1.609c-0.05-0.273-0.186-0.512-0.411-0.711s-0.485-0.311-0.786-0.336h-4.973c-0.173,0-0.336,0.068-0.485,0.205
		c-0.151,0.137-0.226,0.307-0.226,0.506v21.125c0.026,0.297,0.13,0.561,0.319,0.783c0.187,0.225,0.418,0.361,0.692,0.41l1.644,0.301
		v0.486h-2.655h-3.063h-2.655v-0.486l1.607-0.301c0.301-0.049,0.548-0.186,0.747-0.41c0.199-0.223,0.301-0.5,0.301-0.822v-21.086
		c0-0.199-0.068-0.369-0.206-0.506c-0.137-0.137-0.306-0.205-0.505-0.205h-4.937c-0.323,0.025-0.59,0.137-0.803,0.336
		c-0.212,0.199-0.343,0.438-0.395,0.711l-0.297,1.609h-0.486v-2.656v-1.645c0-0.199,0.068-0.369,0.205-0.506
		c0.138-0.137,0.307-0.205,0.506-0.205h6.917h3.063h5.684h1.272c0.198,0,0.368,0.068,0.506,0.205
		c0.136,0.137,0.205,0.307,0.205,0.506v4.301H207.021z M184.923,200.441c-0.297,0.047-0.548,0.186-0.747,0.41
		s-0.296,0.486-0.296,0.783v22.211c0,0.297,0.104,0.561,0.315,0.783c0.213,0.225,0.455,0.361,0.728,0.41l1.645,0.301v0.486h-2.688
		h-3.067h-2.654v-0.486l1.607-0.301c0.3-0.023,0.548-0.156,0.747-0.391c0.199-0.238,0.3-0.506,0.3-0.803v-22.172
		c0-0.322-0.101-0.598-0.3-0.822s-0.447-0.363-0.747-0.41l-1.607-0.301v-0.486h2.654h3.067h2.688v0.486L184.923,200.441z
		 M175.465,218.834c0,0.049,0.014,0.145,0.039,0.281c0.022,0.137,0.036,0.33,0.036,0.58c0,1.021-0.228,2.088-0.691,3.193
		c-0.46,1.111-1.328,2.041-2.596,2.787c-0.027,0-0.185,0.082-0.472,0.244c-0.283,0.16-0.747,0.324-1.382,0.486
		c-0.638,0.16-1.302,0.242-2.001,0.242c-1.744,0-3.539-0.486-5.383-1.459l-1.87-1.084c-0.123-0.1-0.286-0.148-0.485-0.148
		c-0.226,0-0.411,0.063-0.561,0.186c-0.15,0.127-0.249,0.287-0.3,0.486l-0.112,0.486h-0.486v-7.027h0.787l0.522,2.73
		c0.149,0.969,0.662,1.754,1.533,2.352c0,0,0.349,0.199,1.048,0.602c1.594,0.871,3.054,1.307,4.374,1.307
		c1.844,0,3.203-0.896,4.074-2.691c0.027-0.051,0.069-0.156,0.132-0.32c0.062-0.16,0.123-0.396,0.186-0.707
		c0.062-0.313,0.095-0.643,0.095-0.992c0-0.973-0.294-1.957-0.882-2.953c-0.584-0.998-1.599-1.922-3.043-2.77
		c-0.575-0.322-1.466-0.852-2.676-1.584c-1.206-0.738-1.95-1.205-2.226-1.402c-1.144-0.801-2.091-1.686-2.841-2.658
		c-0.747-0.971-1.146-2.094-1.193-3.363c0-1.82,0.534-3.389,1.607-4.711c1.07-1.32,2.878-1.98,5.419-1.98
		c0.124,0,0.432,0.023,0.918,0.072c0.485,0.049,1.121,0.17,1.904,0.355c0.787,0.186,1.615,0.467,2.486,0.842
		c0.149,0.074,0.326,0.113,0.525,0.113c0.301,0,0.561-0.094,0.782-0.279c0.227-0.189,0.362-0.418,0.415-0.695l0.075-0.447h0.486
		v5.984h-0.486l-0.227-1.16c-0.101-0.475-0.293-0.904-0.579-1.289c-0.287-0.389-0.644-0.68-1.067-0.879
		c-0.497-0.252-1.139-0.477-1.925-0.676c-0.783-0.199-1.563-0.297-2.337-0.297c-1.272,0-2.307,0.342-3.102,1.027
		c-0.796,0.686-1.197,1.828-1.197,3.42c0,1.172,0.293,2.082,0.88,2.73c0.584,0.646,1.172,1.139,1.756,1.479
		c0.587,0.336,0.952,0.551,1.104,0.652c0.374,0.199,0.984,0.549,1.832,1.047c0.849,0.5,1.534,0.898,2.057,1.197
		C173.509,214.088,175.191,216.316,175.465,218.834z M143.686,213.637c1.096,0,2.107-0.268,3.031-0.803
		c0.919-0.535,1.646-1.258,2.186-2.168c0.534-0.91,0.803-1.898,0.803-2.973c0-1.098-0.274-2.111-0.822-3.047
		c-0.548-0.934-1.289-1.678-2.225-2.225c-0.934-0.549-1.952-0.824-3.048-0.824h-1.458c-0.173,0-0.329,0.063-0.467,0.186
		c-0.138,0.129-0.205,0.289-0.205,0.492v11.361H143.686z M158.49,225.34v0.486h-2.651h-1.944c-0.525,0-1.104-0.105-1.739-0.316
		c-0.637-0.213-1.09-0.494-1.364-0.842l-8.002-9.873h-0.674c-0.175,0-0.322,0.063-0.449,0.189c-0.124,0.123-0.186,0.275-0.186,0.447
		v8.414c0,0.297,0.101,0.564,0.3,0.803c0.199,0.234,0.447,0.367,0.747,0.391l1.608,0.301v0.486h-8.339v-0.486l1.573-0.301
		c0.296-0.023,0.548-0.156,0.747-0.391c0.197-0.238,0.296-0.506,0.296-0.803v-22.211c0-0.297-0.099-0.564-0.296-0.803
		c-0.199-0.234-0.451-0.369-0.747-0.391l-1.573-0.301v-0.486h2.616h6.62c1.396,0,2.672,0.336,3.833,1.012
		c1.157,0.672,2.078,1.588,2.764,2.746c0.688,1.158,1.031,2.438,1.031,3.83c0,1.771-0.559,3.34-1.665,4.711
		c-1.108,1.373-2.512,2.258-4.204,2.656l7.213,8.936c0.3,0.322,0.629,0.592,0.991,0.807c0.362,0.209,0.666,0.359,0.918,0.445
		c0.247,0.086,0.41,0.145,0.481,0.168L158.49,225.34z M133.927,224.777c0,0.301-0.097,0.551-0.296,0.748
		c-0.202,0.201-0.451,0.301-0.75,0.301h-10.768h-3.065h-2.656v-0.486l1.608-0.301c0.301-0.023,0.548-0.156,0.751-0.391
		c0.199-0.238,0.297-0.506,0.297-0.803v-22.172c0-0.322-0.098-0.598-0.297-0.822c-0.203-0.225-0.45-0.363-0.751-0.41l-1.608-0.301
		v-0.486h2.656h3.065h9.498c0.273,0,0.503,0.096,0.691,0.281c0.186,0.188,0.28,0.404,0.28,0.654v1.309v2.615h-0.485l-0.301-1.568
		c-0.048-0.299-0.186-0.541-0.41-0.73c-0.226-0.186-0.486-0.293-0.787-0.316h-7.889c-0.173,0-0.316,0.063-0.432,0.186
		c-0.109,0.125-0.166,0.275-0.166,0.449v7.404c0,0.172,0.063,0.322,0.186,0.447c0.126,0.123,0.275,0.186,0.452,0.186h5.307
		c0.301-0.021,0.568-0.131,0.804-0.316c0.238-0.186,0.368-0.416,0.394-0.691l0.298-1.609h0.488v2.617v1.197v0.449v2.619h-0.488
		l-0.298-1.609c-0.051-0.273-0.188-0.51-0.41-0.711c-0.226-0.199-0.486-0.299-0.787-0.299h-5.307c-0.177,0-0.326,0.057-0.452,0.168
		c-0.123,0.111-0.186,0.268-0.186,0.467v9.535c0,0.324,0.112,0.604,0.337,0.842c0.225,0.234,0.498,0.352,0.821,0.352h8.675
		c0.301,0,0.562-0.098,0.783-0.295c0.226-0.199,0.362-0.438,0.411-0.713l0.3-1.607h0.486V224.777z M116.02,199.654v0.486
		l-2.02,0.375c-0.446,0.125-0.722,0.371-0.822,0.748l-9.569,24.898h-1.497l-9.532-24.863c-0.075-0.201-0.199-0.367-0.376-0.504
		c-0.172-0.135-0.359-0.23-0.562-0.279l-1.944-0.375v-0.486h8.153v0.486l-0.824,0.148c-0.272,0.051-0.511,0.188-0.708,0.412
		c-0.199,0.225-0.301,0.486-0.301,0.787c0,0.172,0.039,0.334,0.113,0.486l7.028,18.469l7.142-18.621
		c0.022-0.072,0.036-0.188,0.036-0.334c0-0.275-0.085-0.525-0.262-0.75c-0.177-0.223-0.398-0.373-0.672-0.449l-0.861-0.148v-0.486
		H116.02z M87.492,200.441c-0.301,0.047-0.548,0.186-0.747,0.41s-0.301,0.486-0.301,0.783v22.211c0,0.297,0.108,0.561,0.32,0.783
		c0.213,0.225,0.454,0.361,0.728,0.41l1.644,0.301v0.486h-2.691h-3.065h-2.652v-0.486l1.607-0.301
		c0.298-0.023,0.548-0.156,0.747-0.391c0.199-0.238,0.298-0.506,0.298-0.803v-22.172c0-0.322-0.099-0.598-0.298-0.822
		s-0.449-0.363-0.747-0.41l-1.607-0.301v-0.486h2.652h3.065h2.691v0.486L87.492,200.441z M78.109,200.141l-1.645,0.301
		c-0.277,0.047-0.512,0.186-0.711,0.41s-0.3,0.486-0.3,0.783v18.77v5.422h-0.598l-18.173-20.789v18.809
		c0.027,0.322,0.141,0.59,0.337,0.803c0.202,0.211,0.438,0.342,0.711,0.391l1.608,0.301v0.486h-2.656h-2.615h-2.656v-0.486
		l1.647-0.301c0.297-0.049,0.541-0.191,0.728-0.428c0.189-0.238,0.281-0.506,0.281-0.805v-22.172c0-0.297-0.099-0.559-0.298-0.783
		c-0.202-0.225-0.437-0.363-0.711-0.41l-1.647-0.301v-0.486h2.656h0.525h1.568c0.376,0,0.672,0.137,0.897,0.41l15.742,18.059
		v-16.488c0-0.297-0.102-0.564-0.301-0.803c-0.199-0.234-0.449-0.369-0.747-0.391l-1.573-0.301v-0.486h2.621h2.652h2.655V200.141z
		 M49.882,200.18l-1.608,0.262c-0.274,0.047-0.519,0.191-0.73,0.43c-0.213,0.234-0.316,0.502-0.316,0.803v4.449v10.805
		c0,1.721-0.432,3.316-1.289,4.785c-0.861,1.471-2.02,2.639-3.478,3.496c-1.459,0.861-3.061,1.289-4.806,1.289H36.01
		c-1.693,0-3.178-0.426-4.449-1.27c-1.27-0.848-2.235-2-2.897-3.461c-0.659-1.455-0.992-3.07-0.992-4.84v-10.805v-4.449h-0.036
		c0-0.301-0.095-0.568-0.28-0.803c-0.187-0.238-0.431-0.369-0.728-0.395l-1.608-0.297v-0.525h8.336v0.525l-1.605,0.262
		c-0.3,0.047-0.548,0.191-0.75,0.43c-0.2,0.234-0.297,0.502-0.297,0.803v4.449v12.486c0,1.17,0.286,2.244,0.858,3.217
		c0.573,0.971,1.354,1.746,2.339,2.316c0.981,0.574,2.049,0.861,3.193,0.861h1.123c1.147,0,2.212-0.287,3.196-0.861
		c0.985-0.57,1.762-1.346,2.336-2.316c0.575-0.973,0.861-2.047,0.861-3.217v-12.486v-4.449c0-0.322-0.101-0.598-0.3-0.822
		s-0.447-0.363-0.747-0.41l-1.608-0.262v-0.525h7.928V200.18z"/>
	<path fill-rule="evenodd" clip-rule="evenodd" fill="#004A74" d="M255.88,251.822l-3.23-8.318l-3.19,8.318H255.88z
		 M265.569,262.326v0.484h-8.094v-0.484l0.815-0.146c0.274-0.053,0.508-0.193,0.707-0.426c0.196-0.236,0.298-0.504,0.298-0.801
		c0-0.15-0.039-0.297-0.111-0.447l-2.712-7.088h-7.607l-2.786,7.238c-0.022,0.074-0.035,0.174-0.035,0.297
		c0,0.297,0.085,0.559,0.257,0.779c0.174,0.223,0.398,0.359,0.669,0.408l0.855,0.186v0.484h-7.09v-0.484l0.593-0.109
		c0.617-0.102,1.162-0.344,1.632-0.725c0.473-0.385,0.82-0.861,1.04-1.43l9.058-23.57h0.187l9.021,23.533
		c0.223,0.543,0.565,1.016,1.021,1.41c0.458,0.396,0.983,0.643,1.576,0.744L265.569,262.326z M238.36,248.701
		c0-1.73-0.435-3.332-1.303-4.805c-0.864-1.475-2.034-2.637-3.506-3.49c-1.472-0.855-3.076-1.279-4.807-1.279h-5.272
		c-0.197,0-0.357,0.059-0.481,0.184c-0.125,0.127-0.188,0.273-0.188,0.445v20.156c0,0.174,0.069,0.324,0.205,0.447
		c0.138,0.125,0.292,0.186,0.464,0.186h5.272c1.73,0,3.335-0.434,4.807-1.297c1.472-0.869,2.642-2.041,3.506-3.512
		c0.868-1.471,1.303-3.074,1.303-4.805V248.701z M229.301,236.824c2.201,0,4.231,0.545,6.088,1.635
		c1.855,1.086,3.333,2.566,4.437,4.436c1.104,1.867,1.651,3.902,1.651,6.105v1.635c0,2.201-0.548,4.238-1.651,6.107
		c-1.104,1.865-2.581,3.344-4.437,4.434c-1.856,1.09-3.887,1.635-6.088,1.635h-7.648h-1.706h-2.601v-0.484l1.561-0.297
		c0.296-0.025,0.544-0.156,0.743-0.391c0.196-0.234,0.297-0.5,0.297-0.797v-22.016c0-0.32-0.101-0.592-0.297-0.814
		c-0.199-0.223-0.447-0.359-0.743-0.408l-1.561-0.297v-0.482h2.601h2.857H229.301z M207.288,251.822l-3.23-8.318l-3.189,8.318
		H207.288z M216.978,262.326v0.484h-8.094v-0.484l0.814-0.146c0.275-0.053,0.509-0.193,0.708-0.426
		c0.196-0.236,0.298-0.504,0.298-0.801c0-0.15-0.039-0.297-0.112-0.447l-2.711-7.088h-7.607l-2.787,7.238
		c-0.022,0.074-0.034,0.174-0.034,0.297c0,0.297,0.084,0.559,0.261,0.779c0.173,0.223,0.395,0.359,0.664,0.408l0.856,0.186v0.484
		h-7.09v-0.484l0.595-0.109c0.615-0.102,1.16-0.344,1.63-0.725c0.474-0.385,0.819-0.861,1.042-1.43l9.057-23.57h0.186l9.021,23.533
		c0.222,0.543,0.564,1.016,1.021,1.41c0.457,0.396,0.982,0.643,1.576,0.744L216.978,262.326z M190.548,237.604
		c-0.301,0.049-0.537,0.186-0.725,0.408c-0.186,0.223-0.29,0.482-0.315,0.779v22.051c0.025,0.297,0.13,0.555,0.315,0.779
		c0.188,0.223,0.424,0.359,0.725,0.408l1.596,0.297v0.484h-8.316v-0.484l1.596-0.297c0.296-0.049,0.545-0.186,0.744-0.408
		c0.198-0.225,0.296-0.494,0.296-0.818v-21.268l-8.574,18.523l-1.301,2.744h-1.037l-0.297-0.664l-9.875-21.313v22.053
		c0,0.297,0.101,0.551,0.295,0.76c0.199,0.213,0.436,0.342,0.705,0.391l1.635,0.297v0.484h-7.869v-0.484l1.596-0.297
		c0.273-0.049,0.509-0.186,0.705-0.408c0.198-0.225,0.296-0.482,0.296-0.779v-22.051c0-0.297-0.098-0.557-0.296-0.779
		c-0.196-0.223-0.432-0.359-0.705-0.408l-1.596-0.297v-0.482h2.597h3.491c0.422,0,0.796,0.104,1.133,0.316
		c0.332,0.209,0.601,0.498,0.795,0.871l7.908,17.15l7.944-17.15c0.174-0.373,0.428-0.662,0.761-0.871
		c0.336-0.213,0.701-0.316,1.097-0.316h3.638h2.636v0.482L190.548,237.604z M143.773,260.842c0,0.297,0.098,0.563,0.297,0.797
		c0.196,0.234,0.447,0.365,0.741,0.391l1.599,0.297v0.484h-2.637h-3.044h-2.637v-0.484l1.635-0.297
		c0.271-0.049,0.506-0.186,0.705-0.408c0.199-0.225,0.297-0.482,0.297-0.779V249h-14.515v11.842c0,0.297,0.099,0.555,0.298,0.779
		c0.199,0.223,0.443,0.359,0.742,0.408l1.596,0.297v0.484h-2.672h-3.009h-2.635v-0.484l1.595-0.297
		c0.275-0.049,0.517-0.186,0.725-0.408c0.212-0.225,0.315-0.482,0.315-0.779v-22.051c0-0.297-0.104-0.557-0.315-0.779
		c-0.208-0.223-0.449-0.359-0.725-0.408l-1.595-0.297v-0.482h2.635h3.045h2.636v0.482l-1.596,0.297
		c-0.299,0.049-0.543,0.186-0.742,0.408s-0.298,0.482-0.298,0.779v8.613h14.515v-8.613c0-0.297-0.098-0.557-0.297-0.779
		s-0.434-0.359-0.705-0.408l-1.635-0.297v-0.482h2.637h3.044h2.637v0.482l-1.599,0.297c-0.294,0.025-0.545,0.152-0.741,0.389
		c-0.199,0.238-0.297,0.502-0.297,0.799V260.842z M110.477,251.822l-3.229-8.318l-3.194,8.318H110.477z M120.163,262.326v0.484
		h-8.091v-0.484l0.815-0.146c0.273-0.053,0.509-0.193,0.705-0.426c0.199-0.236,0.3-0.504,0.3-0.801c0-0.15-0.039-0.297-0.114-0.447
		l-2.708-7.088h-7.611l-2.783,7.238c-0.025,0.074-0.039,0.174-0.039,0.297c0,0.297,0.089,0.559,0.261,0.779
		c0.174,0.223,0.396,0.359,0.669,0.408l0.854,0.186v0.484h-7.092v-0.484l0.594-0.109c0.62-0.102,1.165-0.344,1.635-0.725
		c0.469-0.385,0.814-0.861,1.04-1.43l9.057-23.57h0.186l9.021,23.533c0.222,0.543,0.562,1.016,1.02,1.41
		c0.46,0.396,0.985,0.643,1.578,0.744L120.163,262.326z M96.072,237.307l-1.634,0.297c-0.271,0.049-0.506,0.186-0.705,0.408
		s-0.297,0.482-0.297,0.779v18.969c0,4.305-0.981,7.469-2.953,9.482c-1.967,2.02-4.742,3.029-8.332,3.029v-1.299
		c1.334,0,2.63-0.365,3.88-1.096c1.249-0.732,2.296-1.932,3.138-3.602c0.839-1.672,1.259-3.84,1.259-6.516v-18.934
		c0-0.32-0.104-0.592-0.313-0.814c-0.213-0.223-0.454-0.359-0.725-0.408l-1.599-0.297v-0.482h2.636h3.009h2.636V237.307z
		 M82.745,248.701c0-1.73-0.434-3.332-1.299-4.805c-0.868-1.475-2.034-2.637-3.507-3.49c-1.475-0.855-3.076-1.279-4.809-1.279h-5.27
		c-0.199,0-0.361,0.059-0.485,0.184c-0.121,0.127-0.183,0.273-0.183,0.445v20.156c0,0.174,0.068,0.324,0.202,0.447
		c0.137,0.125,0.29,0.186,0.466,0.186h5.27c1.732,0,3.334-0.434,4.809-1.297c1.473-0.869,2.639-2.041,3.507-3.512
		c0.865-1.471,1.299-3.074,1.299-4.805V248.701z M73.689,236.824c2.2,0,4.23,0.545,6.088,1.635c1.854,1.086,3.333,2.566,4.436,4.436
		c1.1,1.867,1.651,3.902,1.651,6.105v1.635c0,2.201-0.552,4.238-1.651,6.107c-1.103,1.865-2.581,3.344-4.436,4.434
		c-1.857,1.09-3.888,1.635-6.088,1.635h-7.648h-1.706h-2.601v-0.484l1.56-0.297c0.297-0.025,0.545-0.156,0.74-0.391
		c0.199-0.234,0.301-0.5,0.301-0.797v-22.016c0-0.32-0.102-0.592-0.301-0.814c-0.195-0.223-0.443-0.359-0.74-0.408l-1.56-0.297
		v-0.482h2.601h2.858H73.689z M51.677,251.822l-3.23-8.318l-3.193,8.318H51.677z M61.362,262.326v0.484h-8.091v-0.484l0.816-0.146
		c0.273-0.053,0.509-0.193,0.704-0.426c0.199-0.236,0.297-0.504,0.297-0.801c0-0.15-0.036-0.297-0.11-0.447l-2.708-7.088h-7.612
		l-2.782,7.238c-0.026,0.074-0.039,0.174-0.039,0.297c0,0.297,0.088,0.559,0.261,0.779c0.173,0.223,0.395,0.359,0.669,0.408
		l0.852,0.186v0.484h-7.09v-0.484l0.594-0.109c0.62-0.102,1.165-0.344,1.635-0.725c0.47-0.385,0.815-0.861,1.041-1.43l9.057-23.57
		h0.186l9.021,23.533c0.222,0.543,0.561,1.016,1.021,1.41c0.456,0.396,0.981,0.643,1.575,0.744L61.362,262.326z M37.272,250.227
		l-1.635,0.332c-0.296,0.049-0.542,0.193-0.74,0.428c-0.199,0.234-0.297,0.5-0.297,0.799v1.672v4.23v2.748
		c0,0.27-0.111,0.48-0.336,0.629c-1.211,0.842-2.646,1.447-4.303,1.82c-1.661,0.369-3.221,0.594-4.679,0.666
		c-1.462,0.074-2.193,0.088-2.193,0.039c-1.78,0-3.514-0.34-5.196-1.021c-1.681-0.682-3.178-1.664-4.489-2.953
		c-1.313-1.285-2.304-2.764-2.973-4.434c-0.666-1.67-1.001-3.396-1.001-5.18c0-1.832,0.352-3.613,1.06-5.346
		c0.705-1.73,1.736-3.279,3.1-4.639c1.36-1.359,2.923-2.389,4.695-3.082c1.769-0.693,3.608-1.039,5.513-1.039
		c1.608,0,3.39,0.166,5.345,0.5c1.954,0.336,3.65,0.998,5.086,1.986c0.248,0.174,0.372,0.408,0.372,0.705v5.756h-0.78l-0.15-0.705
		c-0.222-1.139-0.642-2.18-1.262-3.119l-0.258-0.26c-0.992-1.09-2.124-1.934-3.396-2.525c-1.275-0.596-2.63-0.891-4.065-0.891
		c-1.98,0-3.911,0.564-5.791,1.688c-1.882,1.127-3.409,2.645-4.583,4.549c-1.178,1.904-1.766,3.961-1.766,6.164
		c0,2.201,0.588,4.256,1.766,6.162c1.174,1.906,2.701,3.42,4.583,4.545c1.88,1.125,3.811,1.689,5.791,1.689
		c2.03,0,3.922-0.607,5.678-1.816l0.074-0.076c0,0,0.089-0.088,0.262-0.26c0.545-0.545,0.814-1.162,0.814-1.857v-6.346
		c0-0.299-0.104-0.564-0.315-0.799c-0.209-0.234-0.464-0.379-0.761-0.428l-1.67-0.332v-0.482h8.502V250.227z"/>
	<path fill="#004A74" d="M156.188,64.88c-0.372-0.291-0.784-0.552-1.228-0.79c-0.082,0.111-0.158,0.218-0.237,0.326
		c-0.196,0.278-0.39,0.548-0.552,0.75l-0.906-0.721c0.191-0.241,0.352-0.469,0.518-0.701c1.136-1.585,2.425-3.386,4.765-1.804
		c1.467,0.992,1.104,2.257,0.244,3.534c-0.326,0.482-0.719,0.949-1.09,1.396c-0.16,0.192-0.32,0.379-0.424,0.512l-0.901-0.728
		c0.167-0.205,0.3-0.365,0.435-0.525c0.102-0.12,0.205-0.245,0.307-0.368C156.839,65.438,156.529,65.144,156.188,64.88
		 M155.715,63.187c0.421,0.235,0.814,0.496,1.184,0.78c0.339,0.264,0.653,0.548,0.938,0.857c0.501-0.747,0.753-1.461,0.064-1.928
		C157.016,62.299,156.318,62.596,155.715,63.187z M149.829,62.717l1.787-3.214l-1.256-0.656l0.534-1.027l3.57,1.86l-0.536,1.027
		l-1.284-0.669l-1.801,3.236L149.829,62.717z M148.869,57.373l-1.504,4.545l-1.099-0.362l1.504-4.544L148.869,57.373z
		 M142.537,59.68c0.078,0.144,0.235,0.303,0.43,0.434c0.177,0.117,0.373,0.202,0.542,0.218c0.258,0.02,0.528-0.026,0.73-0.144
		c0.132-0.075,0.229-0.183,0.255-0.316c0.007-0.039,0.014-0.078,0.017-0.115c0.017-0.176-0.026-0.296-0.101-0.378
		c-0.095-0.101-0.252-0.17-0.428-0.206c-0.05-0.01-0.101-0.017-0.156-0.02h-0.006l-0.021-0.003h-0.004
		c-0.558-0.055-1.023-0.287-1.35-0.61c-0.356-0.355-0.542-0.822-0.503-1.302v-0.003l0.003-0.01v-0.003
		c0.043-0.463,0.343-0.868,0.761-1.136c0.378-0.244,0.871-0.381,1.344-0.335c0.489,0.046,0.865,0.254,1.155,0.522
		c0.264,0.248,0.443,0.535,0.564,0.777l-1.034,0.519c-0.075-0.15-0.18-0.32-0.317-0.447c-0.12-0.111-0.273-0.196-0.473-0.216
		c-0.216-0.02-0.443,0.043-0.617,0.157c-0.13,0.082-0.217,0.18-0.228,0.267l0,0v0.007h-0.003c-0.011,0.134,0.051,0.271,0.166,0.382
		c0.144,0.146,0.365,0.248,0.64,0.277h0.02c0.094,0.01,0.188,0.022,0.284,0.042c0.401,0.082,0.775,0.258,1.048,0.548
		c0.292,0.313,0.455,0.731,0.413,1.267c-0.006,0.075-0.02,0.156-0.039,0.245c-0.099,0.499-0.407,0.861-0.813,1.096
		c-0.41,0.239-0.93,0.337-1.406,0.294c-0.372-0.033-0.757-0.193-1.083-0.411c-0.349-0.232-0.648-0.542-0.816-0.852L142.537,59.68z
		 M136.466,56.4l-0.006,1.289h0.141c0.455,0.01,0.913,0.02,1.379,0c0.004,0,0.023-0.004,0.052-0.007
		c0.216-0.022,0.457-0.121,0.646-0.267c0.135-0.108,0.229-0.226,0.226-0.33c-0.003-0.013,0-0.003,0-0.01l-0.003-0.003
		c-0.004-0.026-0.007-0.046-0.007-0.056c-0.053-0.287-0.283-0.466-0.612-0.564c-0.454-0.137-1.064-0.137-1.696-0.068L136.466,56.4z
		 M139.301,60.763c-0.304-0.552-0.594-0.982-0.874-1.318c-0.209-0.25-0.404-0.444-0.598-0.59c-0.411,0.01-0.832,0.003-1.253-0.007
		l-0.121-0.003l-0.006,1.576l-1.158-0.003l0.021-4.519v-0.483l0.475-0.085c0.233-0.042,0.458-0.075,0.669-0.097
		c0.771-0.088,1.537-0.079,2.154,0.107c0.744,0.226,1.281,0.683,1.422,1.479c0.011,0.052,0.017,0.095,0.02,0.131l0,0
		c0.003,0.035,0.008,0.065,0.008,0.084c0.025,0.525-0.262,0.972-0.674,1.292c-0.078,0.062-0.16,0.117-0.247,0.169
		c0.062,0.069,0.12,0.138,0.183,0.212c0.319,0.385,0.652,0.877,0.994,1.498L139.301,60.763z M132.732,56.701
		c-0.199,0.04-0.424,0.075-0.657,0.111c-0.81,0.128-1.781,0.277-1.805,0.633c-0.02,0.277-0.017,0.521,0.01,0.753l2.297-0.479
		l0.234,1.132l-2.268,0.473c0.059,0.176,0.124,0.366,0.199,0.571v0.003l0.11,0.313c0,0.004,0.255-0.029,0.587-0.072
		c0.556-0.071,1.219-0.264,1.717-0.424l0.354,1.1c-0.549,0.18-1.283,0.392-1.922,0.473c-0.859,0.111-1.593-0.023-1.828-0.695
		l-0.11-0.313l0,0c-0.396-1.112-0.612-1.729-0.539-2.91c0.085-1.283,1.56-1.51,2.784-1.703c0.219-0.033,0.427-0.066,0.612-0.105
		L132.732,56.701z M123.667,58.074l2.633,2.849l0.244-3.716l1.155,0.075l-0.818,5.527l-4.063-3.947L123.667,58.074z M121.673,59.428
		l2.128,4.091l-1.024,0.532l-2.13-4.091L121.673,59.428z M117.834,67.61l-2.865-4.133l0.838-0.568l4.373,0.917l-1.612-2.577
		l0.981-0.614l2.334,3.729l0.357,0.575l-0.835,0.505l-4.416-1.103l1.801,2.613L117.834,67.61z M111.433,67.525
		c0.127,0.124,0.277,0.274,0.43,0.432c0.39,0.391,0.826,0.835,1.276,1.206c0.773,0.64,1.592,1.078,2.117,0.444
		c0.404-0.489,0.497-0.958,0.262-1.487c-0.298-0.673-1.045-1.469-2.271-2.5l0.742-0.887c1.362,1.139,2.21,2.065,2.585,2.916
		c0.44,0.989,0.283,1.834-0.425,2.693c-1.124,1.363-2.506,0.743-3.748-0.285c-0.489-0.408-0.952-0.874-1.359-1.285
		c-0.144-0.143-0.281-0.284-0.419-0.418L111.433,67.525z M160.019,68.949c-0.096,0.124-0.126,0.253-0.112,0.372
		c0.02,0.173,0.118,0.339,0.248,0.472c0.033,0.033,0.062,0.062,0.089,0.086c0.225,0.206,0.473,0.338,0.694,0.377
		c0.146,0.027,0.274,0.011,0.352-0.065v-0.003l0.014-0.011l0,0c0.177-0.191,0.193-0.388,0.138-0.57
		c-0.082-0.267-0.301-0.551-0.506-0.795c-0.072-0.082-0.132-0.157-0.174-0.222l0,0c-0.3-0.427-0.41-0.851-0.377-1.244
		c0.039-0.419,0.241-0.785,0.567-1.066c0.045-0.04,0.098-0.075,0.146-0.114l0,0c0.421-0.293,0.854-0.424,1.301-0.382
		c0.432,0.04,0.846,0.236,1.236,0.597c0.312,0.288,0.578,0.706,0.702,1.142c0.118,0.421,0.107,0.871-0.107,1.266l-1.015-0.558
		c0.055-0.102,0.049-0.245,0.007-0.394c-0.063-0.229-0.206-0.452-0.372-0.601c-0.196-0.186-0.382-0.281-0.555-0.297
		c-0.163-0.017-0.343,0.047-0.531,0.177l0,0c-0.023,0.014-0.043,0.029-0.06,0.045c-0.098,0.082-0.157,0.18-0.166,0.287
		c-0.011,0.131,0.042,0.294,0.169,0.48h0.003c0.036,0.053,0.073,0.098,0.104,0.134c0.284,0.335,0.587,0.744,0.732,1.211
		c0.166,0.548,0.116,1.127-0.385,1.683h0.003c-0.027,0.025-0.047,0.045-0.063,0.065h-0.004c-0.372,0.359-0.857,0.469-1.366,0.378
		c-0.431-0.081-0.882-0.314-1.267-0.663c-0.052-0.048-0.102-0.095-0.144-0.137c-0.29-0.3-0.518-0.705-0.57-1.152
		c-0.046-0.391,0.045-0.806,0.346-1.2L160.019,68.949z"/>
	<path fill="#004A74" d="M113.713,106.242l1.745,2.023l0.396,0.453l-0.471,0.376c-0.23,0.186-0.456,0.385-0.686,0.584
		c-0.723,0.633-1.478,1.295-2.313,1.585c-0.476,0.169-0.958,0.127-1.402-0.048c-0.463-0.187-0.888-0.522-1.207-0.91
		c-0.301-0.365-0.478-0.859-0.552-1.345c-0.084-0.562-0.039-1.152,0.094-1.543l1.093,0.382c-0.076,0.225-0.097,0.604-0.037,0.989
		c0.045,0.304,0.141,0.593,0.296,0.782c0.199,0.241,0.46,0.454,0.741,0.564c0.199,0.079,0.404,0.101,0.59,0.036
		c0.63-0.222,1.295-0.806,1.938-1.363c0.084-0.078,0.177-0.154,0.261-0.229l-1.36-1.576L113.713,106.242z"/>
	<path fill="#004A74" d="M115.967,112.28c-0.067,0.053-0.141,0.115-0.214,0.183c-0.354,0.32-0.511,0.654-0.53,0.966
		c-0.025,0.402,0.146,0.809,0.404,1.155c0.008,0.011,0.017,0.023,0.033,0.042c0.223,0.261,0.604,0.39,0.995,0.409
		c0.415,0.02,0.819-0.082,1.073-0.269c0.008-0.006,0.02-0.015,0.036-0.028c0.362-0.31,0.761-0.761,0.862-1.256
		c0.064-0.323,0-0.691-0.307-1.084c-0.036-0.042-0.078-0.091-0.125-0.146c-0.365-0.401-0.743-0.522-1.1-0.486
		C116.697,111.802,116.301,112.021,115.967,112.28 M114.973,111.608c0.081-0.075,0.176-0.157,0.283-0.241
		c0.48-0.372,1.079-0.691,1.73-0.756c0.697-0.065,1.415,0.146,2.067,0.86c0.052,0.062,0.115,0.134,0.18,0.216
		c0.545,0.699,0.655,1.39,0.525,2.02c-0.163,0.812-0.73,1.478-1.247,1.916c-0.025,0.02-0.059,0.045-0.095,0.074
		c-0.459,0.339-1.145,0.522-1.81,0.494c-0.688-0.03-1.38-0.284-1.831-0.817c-0.023-0.025-0.049-0.059-0.079-0.097
		c-0.407-0.552-0.681-1.221-0.632-1.923C114.107,112.754,114.376,112.15,114.973,111.608z"/>
	<path fill="#004A74" d="M123.456,116.013c-0.07-0.196-0.239-0.447-0.455-0.666c-0.169-0.172-0.352-0.313-0.502-0.355
		c-0.301-0.086-0.694,0-1.061,0.192c-0.379,0.196-0.708,0.502-0.864,0.851c-0.209,0.47-0.29,1.031-0.163,1.534
		c0.101,0.385,0.336,0.741,0.747,0.972c0.264,0.146,0.534,0.261,0.796,0.3c0.222,0.032,0.438,0.009,0.637-0.098
		c0.222-0.124,0.385-0.469,0.528-0.832c-0.298-0.144-0.702-0.303-1.081-0.455c-0.175-0.071-0.349-0.139-0.557-0.225l0.443-1.073
		c0.127,0.056,0.329,0.134,0.542,0.219c0.646,0.258,1.357,0.539,1.729,0.832l0.337,0.268l-0.157,0.398
		c-0.022,0.053-0.036,0.092-0.088,0.228c-0.238,0.623-0.496,1.299-1.14,1.654c-0.443,0.245-0.907,0.3-1.36,0.228
		c-0.418-0.058-0.822-0.225-1.193-0.434c-0.725-0.404-1.132-1.02-1.306-1.7c-0.195-0.761-0.077-1.598,0.229-2.29
		c0.267-0.595,0.792-1.096,1.386-1.407c0.611-0.32,1.314-0.447,1.906-0.281c0.36,0.102,0.723,0.359,1.023,0.666
		c0.32,0.331,0.587,0.738,0.711,1.076L123.456,116.013z"/>
	<path fill="#004A74" d="M128.038,116.482c0.346,0.135,0.669,0.258,1.02,0.376c0.352,0.118,0.756,0.239,1.275,0.368l0.525,0.135
		l-0.093,0.528c-0.126,0.711-0.255,1.284-0.424,1.82c-0.166,0.534-0.371,1.031-0.659,1.588c-0.209,0.412-0.691,0.741-1.239,0.895
		c-0.489,0.139-1.057,0.149-1.54-0.033c-0.725-0.281-1.214-0.617-1.56-1.005c-0.353-0.401-0.539-0.841-0.652-1.324l1.122-0.271
		c0.075,0.311,0.19,0.587,0.401,0.829c0.225,0.255,0.567,0.483,1.104,0.685c0.237,0.092,0.54,0.082,0.813,0.008
		c0.256-0.076,0.463-0.19,0.525-0.308c0.25-0.489,0.433-0.925,0.579-1.408c0.108-0.346,0.199-0.719,0.288-1.152
		c-0.308-0.084-0.578-0.17-0.833-0.258c-0.396-0.13-0.728-0.258-1.073-0.391L128.038,116.482z"/>
	<path fill="#004A74" d="M134.272,121.843c-0.521-0.048-1.04-0.079-1.552-0.082c-0.03,0.174-0.053,0.35-0.069,0.528
		c-0.02,0.216-0.028,0.435-0.028,0.646l-1.158-0.003c0.003-0.248,0.012-0.5,0.035-0.747c0.098-1.054,0.385-2.11,0.848-2.914
		c0.522-0.904,1.267-1.506,2.22-1.5c0.062,0,0.126,0.003,0.188,0.009c2.609,0.238,2.396,2.699,2.213,4.832
		c-0.027,0.284-0.05,0.559-0.063,0.758l-1.154-0.076c0.015-0.297,0.039-0.534,0.058-0.779c0.014-0.154,0.026-0.308,0.039-0.46
		C135.314,121.96,134.792,121.893,134.272,121.843 M133.008,120.606c0.456,0.014,0.913,0.04,1.377,0.084
		c0.502,0.047,1.008,0.112,1.511,0.196c-0.02-1.025-0.278-1.866-1.244-1.955c-0.028-0.003-0.059-0.003-0.088-0.003
		c-0.482-0.003-0.894,0.365-1.213,0.917C133.219,120.075,133.105,120.333,133.008,120.606z"/>
	<polygon fill="#004A74" points="139.705,118.33 139.77,119.746 142.202,117.609 142.964,118.479 141.141,120.081 143.349,122.238 
		142.543,123.07 140.27,120.848 139.836,121.227 139.924,123.138 138.766,123.188 138.55,118.378 	"/>
	<path fill="#004A74" d="M145.934,118.786c-0.014,0.216-0.004,0.447,0.025,0.691l2.489-0.743c-0.13-0.317-0.268-0.595-0.411-0.823
		c-0.303-0.469-0.651-0.682-1.096-0.525C146.236,117.637,145.97,118.14,145.934,118.786 M145.323,121.986
		c-0.32-1.167-0.601-2.29-0.548-3.262c0.064-1.119,0.534-1.989,1.781-2.43c1.063-0.376,1.837,0.032,2.453,0.992
		c0.502,0.779,0.881,1.958,1.24,3.374l-1.123,0.281c-0.101-0.392-0.199-0.764-0.303-1.106l-2.655,0.792
		c0.081,0.343,0.175,0.694,0.272,1.057L145.323,121.986z"/>
	<path fill="#004A74" d="M151.878,115.704l0.877,1.394c0.134-0.079,0.261-0.157,0.382-0.242c0.252-0.174,0.493-0.376,0.73-0.649
		c0.611-0.699,0.845-1.185,0.853-1.508c0.003-0.087-0.017-0.149-0.05-0.188c-0.039-0.05-0.104-0.086-0.186-0.112
		c-0.219-0.065-0.486-0.039-0.688,0.069c-0.531,0.284-1.054,0.645-1.579,1.004C152.103,115.547,151.992,115.625,151.878,115.704
		 M152.948,119.576l-2.353-3.736l-0.303-0.486l0.481-0.31c0.266-0.172,0.525-0.352,0.791-0.531c0.54-0.373,1.082-0.741,1.686-1.064
		c0.461-0.245,1.07-0.31,1.57-0.157c0.293,0.089,0.554,0.249,0.745,0.486c0.199,0.246,0.317,0.558,0.312,0.943
		c-0.008,0.32-0.109,0.691-0.34,1.123c0.157,0.006,0.31,0.02,0.464,0.045c0.584,0.088,1.132,0.307,1.644,0.633l-0.616,0.979
		c-0.379-0.238-0.777-0.401-1.201-0.468c-0.378-0.058-0.782-0.038-1.209,0.069c-0.272,0.287-0.542,0.512-0.823,0.705
		c-0.141,0.098-0.28,0.186-0.424,0.267l0.557,0.884L152.948,119.576z"/>
	<path fill="#004A74" d="M160.207,114.392c-0.44-0.629-0.904-1.202-1.371-1.723c-0.339-0.379-0.685-0.738-1.027-1.081l-0.984,0.885
		l-0.774-0.862l2.946-2.635l0.771,0.862l-1.094,0.978c0.337,0.337,0.68,0.694,1.025,1.08c0.495,0.555,0.988,1.162,1.458,1.834
		L160.207,114.392z"/>
	<path fill="#004A74" d="M162.547,106.419c-0.578,0.857-0.18,1.614,0.442,2.27l1.654-2.326c-0.026-0.02-0.052-0.036-0.079-0.056
		C163.848,105.824,163.109,105.583,162.547,106.419 M163.828,110.965c-0.18-0.166-0.382-0.332-0.593-0.509
		c-1.357-1.118-3.091-2.548-1.651-4.684c1.099-1.632,2.398-1.258,3.627-0.429c0.382,0.258,0.761,0.572,1.123,0.868
		c0.301,0.249,0.587,0.483,0.838,0.654l-0.642,0.961c-0.295-0.199-0.604-0.453-0.93-0.72l-0.044-0.036l-1.7,2.402l0.112,0.09
		c0.238,0.199,0.466,0.385,0.648,0.554L163.828,110.965z"/>
	<path fill="#004A74" d="M164.553,62.498c0.188-0.415,0.323-0.721,0.46-1.034c0.102-0.231-0.192-0.358-0.089-0.594
		c0.362-0.815,0.738-1.618,1.162-2.336c0.906-1.543,1.678-2.796,2.544-4.049c0.882-1.272,1.854-2.538,3.162-4.097
		c1.582-1.889,3.125-3.704,5.175-5.113c2.071-1.429,4.613-2.405,8.13-2.564c2.591-0.114,4.832,0.669,6.835,2.177
		c1.938,1.465,3.645,3.614,5.217,6.293c1.748,2.972,3.36,4.972,4.815,6.78c0.604,0.753,1.184,1.471,1.706,2.169
		c0.738,0.989,1.632,1.798,2.636,2.45c1.106,0.715,2.353,1.25,3.68,1.628l1.098,0.317l-0.646,0.943
		c-0.78,1.128-1.403,2.333-1.801,3.598c-0.365,1.149-0.545,2.343-0.486,3.57c0.043,0.885,0.052,1.801,0.063,2.759
		c0.025,2.314,0.051,4.875,0.593,8.291c0.486,3.067,0.536,5.809-0.033,8.177c-0.587,2.439-1.82,4.47-3.892,6.026
		c-2.817,2.116-5.402,2.978-7.908,3.189c-2.463,0.213-4.809-0.208-7.233-0.658c-2.02-0.379-3.576-0.733-5.043-1.151
		c-1.472-0.418-2.862-0.894-4.542-1.508c-1.004-0.368-2.022-0.902-3.037-1.436c-0.268-0.14-0.643-0.163-0.799-0.417
		c-0.156-0.255-0.705-1.014-1.221-1.227l0.969-0.434c0.604,0.245,0.489-0.066,1.119,0.26c0.232,0.121,0.463,0.242,0.695,0.362
		c0.969,0.51,1.944,1.022,2.835,1.348c1.635,0.598,2.989,1.06,4.421,1.469c1.436,0.407,2.948,0.756,4.897,1.118
		c2.307,0.431,4.537,0.829,6.805,0.636c2.222-0.192,4.525-0.961,7.057-2.863c1.746-1.312,2.786-3.028,3.283-5.096
		c0.515-2.141,0.462-4.675,0.009-7.537c-0.562-3.529-0.587-6.159-0.612-8.535c-0.011-0.916-0.02-1.79-0.063-2.697
		c-0.069-1.433,0.136-2.82,0.555-4.141c0.342-1.079,0.825-2.121,1.426-3.112c-1.09-0.388-2.124-0.884-3.077-1.5
		c-1.17-0.761-2.209-1.7-3.063-2.846c-0.554-0.737-1.099-1.416-1.666-2.124c-1.488-1.843-3.133-3.889-4.95-6.979
		c-1.465-2.492-3.033-4.479-4.795-5.811c-1.7-1.278-3.593-1.944-5.772-1.846c-3.167,0.14-5.436,1.007-7.271,2.274
		c-1.862,1.282-3.331,3.011-4.843,4.815c-1.284,1.533-2.23,2.763-3.073,3.977c-0.848,1.224-1.599,2.444-2.479,3.944
		c-0.493,0.833-0.94,1.854-1.384,2.868c-0.172,0.392-1.288,0.508-1.408,0.779L164.553,62.498z M144.1,127.315
		c-0.085,0.417,0.454,0.292,0.382,0.694c-0.332,1.84-0.538,3.537-0.636,5.247c-0.118,2.071-0.072,4.172,0.107,6.594
		c0.176,2.346,0.358,4.613,1.123,6.736c0.753,2.1,2.087,4.125,4.579,6.088c1.717,1.354,3.642,1.922,5.768,1.873
		c2.197-0.053,4.63-0.754,7.282-1.926c3.261-1.441,5.798-2.143,8.088-2.779c0.868-0.238,1.699-0.467,2.595-0.75
		c1.36-0.432,2.753-0.586,4.146-0.52c1.132,0.053,2.262,0.256,3.374,0.578c0.094-1.154,0.307-2.283,0.658-3.357
		c0.435-1.324,1.076-2.57,1.967-3.693c0.553-0.699,1.073-1.41,1.623-2.152c1.401-1.912,2.958-4.03,5.476-6.578
		c2.033-2.054,3.554-4.077,4.386-6.119c0.806-1.972,0.963-3.972,0.311-6.056c-0.949-3.023-2.37-4.995-4.062-6.447
		c-1.723-1.478-3.765-2.456-5.894-3.451c-1.804-0.848-3.231-1.446-4.625-1.952c-1.381-0.498-2.758-0.91-4.454-1.386
		c-0.945-0.264-4.485-0.852-5.569-1.022l-0.258-0.039c-0.091-0.211,2.171,0.092,2.365-0.531c0.03-0.095-0.326-0.691-0.391-0.813
		c1.526,0.258,3.568,0.619,4.296,0.821c1.704,0.477,3.104,0.901,4.562,1.43c1.444,0.522,2.92,1.138,4.771,2.006
		c2.233,1.048,4.385,2.076,6.264,3.688c1.911,1.641,3.507,3.846,4.563,7.206c0.773,2.476,0.595,4.841-0.354,7.164
		c-0.918,2.252-2.562,4.45-4.744,6.66c-2.428,2.453-3.947,4.52-5.318,6.387c-0.564,0.766-1.099,1.496-1.66,2.205
		c-0.764,0.963-1.315,2.035-1.69,3.178c-0.411,1.262-0.61,2.604-0.636,3.977l-0.022,1.143l-1.073-0.387
		c-1.296-0.465-2.621-0.758-3.941-0.82c-1.197-0.057-2.398,0.078-3.573,0.449c-0.815,0.258-1.713,0.506-2.649,0.764
		c-2.228,0.617-4.694,1.299-7.865,2.703c-2.835,1.252-5.471,2.002-7.911,2.057c-2.509,0.059-4.784-0.613-6.815-2.217
		c-2.765-2.18-4.259-4.459-5.11-6.83c-0.841-2.346-1.033-4.713-1.217-7.166c-0.186-2.48-0.23-4.649-0.106-6.807
		c0.081-1.422,0.233-2.841,0.473-4.335c0.12-0.764,0.897-1.26,1.063-2.082L144.1,127.315z M131.653,128.531
		c0.079,0.441,0.61-1.155,0.669-0.714c0.102,0.759,0.265,2.012,0.284,2.208c0.16,1.775,0.264,3.239,0.294,4.773
		c0.025,1.55-0.027,3.149-0.177,5.172c-0.183,2.453-0.379,4.82-1.22,7.166c-0.853,2.371-2.343,4.65-5.106,6.83
		c-2.036,1.604-4.31,2.275-6.815,2.217c-2.44-0.055-5.079-0.805-7.914-2.057c-3.172-1.404-5.638-2.086-7.863-2.703
		c-0.936-0.258-1.837-0.506-2.651-0.764c-1.175-0.371-2.373-0.506-3.573-0.449c-1.321,0.063-2.646,0.355-3.941,0.82l-1.07,0.387
		l-0.022-1.143c-0.029-1.373-0.225-2.715-0.641-3.977c-0.371-1.143-0.922-2.215-1.686-3.178c-0.562-0.709-1.099-1.439-1.663-2.205
		c-1.371-1.867-2.892-3.935-5.315-6.387c-2.186-2.21-3.826-4.408-4.747-6.66c-0.946-2.323-1.129-4.688-0.352-7.164
		c1.054-3.36,2.648-5.565,4.56-7.206c1.883-1.612,4.03-2.64,6.265-3.688c1.851-0.868,3.324-1.484,4.77-2.006
		c1.459-0.528,2.857-0.953,4.565-1.43c1.014-0.284,3.326-0.646,4.473-0.824l-0.901,1.327l1.502,0.238l-0.351,0.056
		c-1.082,0.169-3.337,0.522-4.284,0.787c-1.691,0.476-3.068,0.888-4.449,1.386c-1.394,0.506-2.821,1.104-4.63,1.952
		c-2.124,0.995-4.169,1.973-5.892,3.451c-1.693,1.452-3.112,3.424-4.059,6.447c-0.655,2.084-0.498,4.084,0.308,6.056
		c0.832,2.042,2.352,4.065,4.384,6.119c2.52,2.548,4.075,4.666,5.478,6.574c0.548,0.746,1.07,1.457,1.626,2.156
		c0.891,1.123,1.529,2.369,1.964,3.693c0.352,1.074,0.564,2.203,0.658,3.357c1.112-0.322,2.244-0.525,3.373-0.578
		c1.396-0.066,2.787,0.088,4.147,0.52c0.897,0.283,1.727,0.512,2.593,0.754c2.291,0.633,4.829,1.334,8.088,2.775
		c2.653,1.172,5.087,1.873,7.282,1.926c2.128,0.049,4.053-0.52,5.769-1.873c2.492-1.963,3.827-3.988,4.58-6.088
		c0.764-2.123,0.949-4.391,1.123-6.736c0.149-2.008,0.202-3.553,0.175-5.025c-0.022-1.483-0.127-2.913-0.286-4.652
		c-0.017-0.192-0.315-2.447-0.353-2.691c-0.029-0.208-0.064-0.447-0.111-0.698l0.741-0.128L131.653,128.531z M77.643,107.841
		c-1.834-0.02-3.693-0.411-5.498-1.084v-0.003c-2.804-1.04-5.483-2.75-7.705-4.756c-2.28-2.056-3.824-4.678-4.764-7.467
		c-1.08-3.205-1.36-6.633-1.041-9.652c0.278-2.59,0.588-4.531,0.868-6.271c0.375-2.329,0.692-4.296,0.779-7.046
		c0.06-1.814,0.522-3.208,0.033-4.613c-0.489-1.403-1.239-2.663-2.226-3.854l-0.874-1.063l1.352-0.264
		c1.52-0.297,2.899-0.79,4.166-1.56c1.271-0.776,1.752-2.01,2.857-3.448c1.671-2.17,2.679-3.893,3.873-5.935
		c0.871-1.492,1.844-3.155,3.318-5.393c1.677-2.539,4.067-5.009,6.936-6.793c2.495-1.553,5.353-2.597,8.423-2.734
		c2.961-0.134,6.065,0.291,8.855,1.295c1.441,0.52,2.803,1.195,4.017,2.027c-0.34-1.374-0.486-2.822-0.471-4.297
		c0.033-2.992,0.74-6.095,1.876-8.865c1.165-2.841,3.115-5.18,5.419-7.004c2.652-2.101,5.784-3.521,8.73-4.238
		c2.549-0.62,4.473-0.978,6.203-1.301c2.313-0.434,4.268-0.799,6.889-1.645c1.728-0.558,3.124-1.641,4.284-2.578
		c1.155-0.933,2.085-2.065,2.874-3.39l0.702-1.181l0.705,1.181c0.789,1.328,1.716,2.457,2.874,3.39
		c1.157,0.939,2.554,2.02,4.276,2.578c2.623,0.845,4.578,1.21,6.894,1.645c1.727,0.323,3.651,0.681,6.199,1.301
		c2.95,0.718,6.077,2.138,8.731,4.238c2.306,1.824,4.253,4.163,5.419,7.004c1.138,2.77,1.843,5.873,1.875,8.865
		c0.017,1.39-0.113,2.76-0.414,4.065c1.168-0.77,2.47-1.39,3.847-1.866c2.825-0.979,5.98-1.36,8.972-1.224
		c3.07,0.137,5.928,1.181,8.42,2.734c2.871,1.784,5.263,4.254,6.937,6.793c1.475,2.238,2.446,3.901,3.32,5.393
		c1.191,2.042,2.2,3.765,3.871,5.935c1.104,1.438,1.549,2.75,2.818,3.523c1.266,0.773,2.646,1.263,4.166,1.56l1.351,0.264
		l-0.874,1.063c-0.985,1.194-1.735,2.45-2.225,3.852c-0.491,1.407,0.012,2.725,0.07,4.539c0.09,2.75,0.405,4.717,0.781,7.046
		c0.28,1.739,0.593,3.68,0.867,6.271c0.318,3.019,0.043,6.447-1.038,9.652c-0.939,2.79-2.486,5.411-4.763,7.467
		c-2.225,2.006-4.904,3.716-7.706,4.756v0.003c-1.809,0.673-3.668,1.064-5.5,1.084c1.05,1.008,1.992,2.222,2.821,3.553
		c1.791,2.874,3.07,6.302,3.722,9.311c0.649,2.998,0.376,6.029-0.488,8.841c-0.992,3.23-2.763,6.18-4.787,8.444
		c-1.757,1.967-3.131,3.35-4.364,4.59c-1.66,1.67-3.063,3.082-4.744,5.266c-1.106,1.438-1.829,2.846-2.254,4.27
		c-0.421,1.428-0.541,2.885-0.44,4.432l0.091,1.369l-1.253-0.572c-1.399-0.645-2.81-1.049-4.29-1.162
		c-1.487-0.111-3.06,0.066-4.799,0.586c-2.646,0.797-4.456,1.604-6.604,2.559c-1.622,0.721-3.429,1.523-5.844,2.447
		c-2.835,1.082-6.218,1.689-9.591,1.467c-2.934-0.195-5.863-1.018-8.437-2.693c-2.512-1.639-4.852-3.791-6.574-6.234
		c-0.846-1.195-1.539-2.461-2.039-3.775c-0.503,1.314-1.197,2.58-2.042,3.775c-1.72,2.443-4.063,4.596-6.574,6.234
		c-2.573,1.676-5.504,2.498-8.434,2.693c-3.377,0.223-6.76-0.385-9.591-1.467c-2.419-0.924-4.226-1.727-5.844-2.447
		c-2.147-0.955-3.961-1.762-6.606-2.559c-1.739-0.52-3.313-0.697-4.796-0.586c-1.485,0.113-2.891,0.518-4.295,1.162l-1.251,0.572
		l0.091-1.369c0.104-1.547-0.021-3.004-0.441-4.432c-0.421-1.424-1.148-2.832-2.254-4.27c-1.677-2.184-3.08-3.596-4.744-5.266
		c-1.233-1.24-2.606-2.623-4.36-4.59c-2.024-2.264-3.798-5.214-4.79-8.444c-0.862-2.813-1.14-5.843-0.486-8.841
		c0.652-3.008,1.928-6.437,3.72-9.311C75.65,110.063,76.592,108.849,77.643,107.841z M114.93,59.053L114.93,59.053l-0.014,0.01
		l-1.226-0.613l-4.952-6.926c-2.079-2.858-4.154-5.72-6.212-8.682l-0.193-0.267l-0.022-0.036c-1.494-1.703-3.557-2.962-5.866-3.797
		c-2.584-0.93-5.475-1.321-8.23-1.198c-2.765,0.125-5.354,1.074-7.628,2.49c-2.666,1.66-4.885,3.947-6.435,6.3
		c-1.386,2.1-2.378,3.797-3.269,5.321c-1.21,2.078-2.235,3.83-3.993,6.107c-1.233,1.605-1.863,2.972-3.302,3.85
		c-1.083,0.659-2.226,1.135-3.441,1.474c0.724,1.035,1.305,2.131,1.719,3.322c0.555,1.596,0.124,3.184,0.059,5.206
		c-0.091,2.859-0.418,4.872-0.799,7.25c-0.277,1.708-0.584,3.612-0.858,6.192c-0.297,2.803-0.036,5.983,0.966,8.953
		c0.851,2.535,2.248,4.914,4.304,6.77c2.084,1.879,4.58,3.473,7.18,4.439v-0.003c2.274,0.845,4.623,1.205,6.829,0.842
		c0.355-0.101,0.714-0.202,1.069-0.308c3.473-1.248,6.853-2.175,10.231-3.096c3.083-0.953,6.164-1.905,9.147-2.773
		c0.553-0.16,0.84,0.379,1.388,0.225l0.483,0.092l0.129,0.708c-0.404,0.146-0.665,0.352-1.065,0.489
		c-3.165,1.087-6.265,1.925-9.36,2.77l-0.382,0.101l-0.154,0.048c-3.337,1.031-6.678,2.062-9.897,2.997
		c-1.896,0.952-3.56,2.773-4.916,4.951c-1.688,2.705-2.896,5.944-3.512,8.79c-0.587,2.708-0.332,5.456,0.45,8.012
		c0.921,3,2.564,5.733,4.441,7.834c1.702,1.912,3.076,3.289,4.307,4.525c1.699,1.713,3.138,3.158,4.877,5.422
		c1.236,1.605,2.051,3.189,2.531,4.809c0.359,1.213,0.525,2.438,0.542,3.703c1.188-0.438,2.394-0.717,3.654-0.813
		c1.683-0.127,3.451,0.07,5.389,0.648c2.728,0.82,4.594,1.652,6.807,2.637c1.568,0.699,3.32,1.479,5.757,2.408
		c2.635,1.008,5.775,1.574,8.904,1.363c2.669-0.176,5.327-0.916,7.645-2.43c2.346-1.527,4.523-3.533,6.127-5.801
		c1.399-1.984,2.349-4.164,2.561-6.389c-0.065-3.729-0.032-7.299,0-10.861c-0.026-2.708-0.049-5.412-0.029-8.195
		c0.003-0.887,0.697-1.02,0.711-1.927l0.352,0.401c0.02,1.026,0.637,0.832,0.641,1.835c0.017,2.669-0.01,5.276-0.032,7.88v0.006
		v0.003c0.032,3.559,0.065,7.124,0,10.858c0.211,2.225,1.164,4.404,2.563,6.389c1.603,2.268,3.781,4.273,6.124,5.801
		c2.319,1.514,4.975,2.254,7.644,2.43c3.129,0.211,6.271-0.355,8.903-1.363c2.438-0.93,4.19-1.709,5.762-2.408
		c2.21-0.984,4.075-1.816,6.803-2.637c1.941-0.578,3.709-0.775,5.39-0.648c1.259,0.096,2.466,0.375,3.657,0.813
		c0.014-1.266,0.183-2.49,0.542-3.703c0.479-1.619,1.295-3.203,2.528-4.809c1.742-2.264,3.178-3.709,4.877-5.422
		c1.233-1.236,2.604-2.613,4.307-4.525c1.876-2.101,3.521-4.835,4.444-7.834c0.781-2.557,1.037-5.304,0.446-8.012
		c-0.617-2.845-1.82-6.085-3.511-8.79c-1.357-2.178-3.018-3.999-4.917-4.951c-3.174-0.921-6.29-1.887-9.405-2.856l-0.18-0.055
		l-0.352-0.098c-3.253-0.879-7.449-2.085-11.028-3.377l0.241-0.483c1.225,0.199,1.922-0.598,2.132-0.535
		c3.096,0.917,6.573,2.015,9.402,2.894c3.128,0.848,6.268,1.708,9.706,2.948c0.357,0.101,0.714,0.207,1.073,0.308
		c2.205,0.362,4.554,0.003,6.827-0.842l0.005,0.003c2.597-0.966,5.092-2.56,7.176-4.439c2.057-1.856,3.452-4.235,4.307-6.77
		c1.003-2.969,1.261-6.15,0.963-8.953c-0.274-2.58-0.581-4.483-0.854-6.192c-0.386-2.379-0.712-4.391-0.801-7.25
		c-0.064-2.022-0.537-3.535,0.017-5.127c0.418-1.194,0.995-2.288,1.723-3.325c-1.22-0.34-2.362-0.816-3.444-1.475
		c-1.438-0.878-2.03-2.319-3.264-3.925c-1.754-2.277-2.779-4.03-3.993-6.107c-0.891-1.524-1.882-3.221-3.27-5.321
		c-1.549-2.353-3.768-4.64-6.434-6.3c-2.27-1.416-4.86-2.366-7.624-2.49c-2.802-0.126-5.742,0.229-8.364,1.136
		c-2.101,0.728-3.994,1.811-5.43,3.285c-0.087,0.183-0.183,0.358-0.28,0.534l-0.049,0.076l-11.248,15.725l-1.303,1.139l-1.194,0.94
		l0.277-0.891l0.007-0.007l0.006-0.013c0.487-0.698,0.02-0.976,0.51-1.674c1.67-2.388,3.363-4.766,5.057-7.145
		c2.203-3.096,4.403-6.189,6.519-9.246l0.056-0.072c0.088-0.104,0.18-0.205,0.271-0.303c0.858-1.82,1.221-3.915,1.196-6.085
		c-0.031-2.776-0.69-5.664-1.754-8.254c-1.05-2.564-2.819-4.682-4.918-6.342c-2.456-1.948-5.359-3.263-8.1-3.929
		c-2.503-0.61-4.404-0.965-6.11-1.285c-2.376-0.441-4.379-0.816-7.096-1.693c-1.93-0.624-3.495-1.802-4.807-2.858
		c-0.985-0.796-1.82-1.713-2.551-2.747c-0.73,1.034-1.565,1.951-2.548,2.747c-1.312,1.057-2.885,2.235-4.813,2.858
		c-2.717,0.877-4.72,1.252-7.096,1.693c-1.703,0.32-3.605,0.675-6.107,1.285c-2.74,0.666-5.647,1.98-8.104,3.929
		c-2.097,1.66-3.866,3.777-4.917,6.342c-1.063,2.59-1.722,5.478-1.751,8.254c-0.027,2.415,0.425,4.738,1.504,6.695l0.157,0.222
		l6.045,8.457l0.307,0.417c1.612,2.218,3.223,4.437,4.857,6.747c0.003,0.003,0.404,1.732,0.525,2.065L114.93,59.053z
		 M110.365,62.801c-0.13-0.293-1.344-0.339-1.444-0.57c-0.444-1.015-0.894-2.036-1.385-2.868c-0.883-1.5-1.633-2.721-2.481-3.944
		c-0.839-1.214-1.785-2.443-3.07-3.977c-1.511-1.805-2.982-3.534-4.846-4.815c-1.837-1.267-4.104-2.134-7.271-2.274
		c-2.18-0.098-4.073,0.567-5.772,1.846c-1.762,1.332-3.327,3.319-4.796,5.811c-1.817,3.09-3.461,5.135-4.946,6.981
		c-0.57,0.705-1.115,1.383-1.667,2.121c-0.854,1.146-1.893,2.085-3.063,2.846c-0.957,0.617-1.991,1.112-3.077,1.5
		c0.598,0.992,1.08,2.033,1.423,3.112c0.417,1.321,0.623,2.708,0.554,4.141c-0.039,0.907-0.048,1.781-0.058,2.697
		c-0.026,2.376-0.056,5.006-0.614,8.535c-0.453,2.862-0.508,5.396,0.007,7.537c0.496,2.068,1.536,3.784,3.283,5.096
		c2.531,1.902,4.835,2.671,7.06,2.863c2.268,0.193,4.495-0.205,6.802-0.636c1.952-0.362,3.461-0.711,4.896-1.118
		c1.433-0.409,2.787-0.871,4.425-1.469c0.938-0.343,2.064-0.871,3.171-1.383c0.838-0.393,2.055-0.895,2.832-1.21l0.329,0.806
		l-1.892,1.05c-0.499,0.202,0.937,0.178,0.245,0.476c-0.292,0.127-0.575,0.255-0.82,0.368c-1.115,0.52-2.25,1.051-3.307,1.436
		c-1.682,0.614-3.067,1.09-4.539,1.508c-1.468,0.418-3.023,0.772-5.044,1.151c-2.427,0.45-4.772,0.871-7.236,0.658
		c-2.506-0.211-5.087-1.073-7.908-3.189c-2.071-1.556-3.305-3.586-3.892-6.026c-0.568-2.368-0.516-5.11-0.033-8.177
		c0.541-3.416,0.568-5.976,0.594-8.291c0.01-0.958,0.02-1.875,0.062-2.759c0.059-1.227-0.12-2.421-0.482-3.57
		c-0.401-1.265-1.024-2.469-1.801-3.598l-0.649-0.943l1.1-0.317c1.324-0.378,2.574-0.913,3.677-1.628
		c1.005-0.652,1.901-1.461,2.64-2.45c0.52-0.698,1.099-1.416,1.703-2.169c1.455-1.805,3.066-3.808,4.814-6.78
		c1.576-2.679,3.279-4.828,5.22-6.293c2.004-1.507,4.242-2.291,6.832-2.177c3.521,0.16,6.063,1.136,8.134,2.564
		c2.047,1.409,3.589,3.224,5.171,5.113c1.309,1.559,2.281,2.825,3.161,4.097c0.868,1.253,1.638,2.506,2.545,4.049
		c0.545,0.924,1.012,1.987,1.475,3.041c0.121,0.271,0.239,0.542,0.329,0.748L110.365,62.801z M153.962,55.879
		c0.235-0.229,0.063-0.408,0.287-0.646c0.225-0.239,2.663-2.77,2.839-2.985c1.113-1.334,2.007-2.451,2.874-3.667
		c0.857-1.198,1.694-2.503,2.708-4.235c1.187-2.033,2.319-4,2.897-6.186c0.57-2.156,0.62-4.586-0.317-7.618
		c-0.642-2.082-1.905-3.641-3.687-4.805c-1.843-1.211-4.244-2.013-7.085-2.555c-3.505-0.663-5.994-1.527-8.239-2.303
		c-0.874-0.304-1.712-0.594-2.557-0.854c-1.374-0.421-2.61-1.08-3.717-1.921c-0.9-0.686-1.716-1.495-2.446-2.392
		c-0.733,0.897-1.55,1.707-2.45,2.392c-1.106,0.841-2.34,1.5-3.713,1.921c-0.849,0.26-1.684,0.551-2.561,0.854
		c-2.244,0.776-4.73,1.641-8.238,2.303c-2.841,0.542-5.243,1.344-7.086,2.555c-1.778,1.165-3.045,2.724-3.687,4.805
		c-0.937,3.031-0.884,5.461-0.313,7.618c0.578,2.186,1.71,4.153,2.896,6.186c1.012,1.732,1.851,3.037,2.705,4.235
		c0.871,1.216,1.762,2.333,2.874,3.667c0.438,0.528,0.976,1.07,1.543,1.615c0.227,0.219-0.178,0.64,0.053,0.858l0.16,0.153
		l-0.497,0.986l-0.158-0.15c-0.829-0.79-1.671-1.583-2.362-2.411c-1.146-1.38-2.065-2.529-2.949-3.765
		c-0.901-1.263-1.765-2.603-2.79-4.358c-1.239-2.127-2.427-4.189-3.064-6.593c-0.642-2.434-0.703-5.155,0.337-8.522
		c0.764-2.479,2.258-4.326,4.354-5.7c2.034-1.334,4.635-2.211,7.684-2.789c3.404-0.646,5.824-1.484,8.007-2.242
		c0.895-0.31,1.752-0.606,2.617-0.875c1.171-0.355,2.234-0.926,3.194-1.657c1.05-0.803,1.976-1.798,2.778-2.914l0.666-0.926
		l0.665,0.926c0.804,1.116,1.726,2.111,2.779,2.914c0.96,0.73,2.02,1.301,3.191,1.657c0.867,0.268,1.725,0.564,2.62,0.875
		c2.183,0.757,4.6,1.596,8.002,2.242c3.054,0.578,5.651,1.455,7.688,2.789c2.097,1.374,3.588,3.22,4.355,5.7
		c1.037,3.367,0.975,6.088,0.332,8.522c-0.636,2.404-1.82,4.466-3.063,6.593c-1.024,1.755-1.885,3.096-2.786,4.358
		c-0.888,1.236-1.804,2.385-2.952,3.765c-0.226,0.265-0.45,0.519-0.683,0.764c-0.097,0.104-0.609,0.629-1.181,1.22
		c-0.764,0.786,0.065-1.253-0.081-1.109L153.962,55.879z"/>
	<path fill="#004A74" d="M182.61,36.065c1.122-4.303,1.72-7.526,1.296-11.683c-3.413,0.952-6.636,2.476-10.189,4.975l-0.492-1.654
		c3.498-2.372,7.086-4.144,11.219-5.142l0.882-0.196l0.109,0.897c0.525,4.183,0.259,8.352-1.186,12.656L182.61,36.065z"/>
	<path fill="#004A74" d="M201.928,116.004c4.437-0.246,7.689-0.656,11.521-2.331c-1.952-2.958-4.385-5.565-7.844-8.185l1.422-0.977
		c3.326,2.61,6.107,5.484,8.32,9.119l0.456,0.777l-0.822,0.38c-3.827,1.775-7.875,2.794-12.417,2.732L201.928,116.004z"/>
	<path fill="#004A74" d="M131.855,158.305c1.523,4.18,2.881,7.232,5.596,10.41c2.265-2.725,4.423-6.385,5.706-10.434l1.357,1.121
		c-0.931,3.039-3.639,7.947-6.47,11.117l-0.613,0.662l-0.604-0.674c-2.813-3.143-4.989-6.791-6.248-11.152L131.855,158.305z"/>
	<path fill="#004A74" d="M70.103,105.462c-3.621,2.584-6.146,4.672-8.485,8.133c3.23,1.46,6.682,2.359,11.008,2.722l-0.686,1.582
		c-4.205-0.424-8.091-1.363-11.904-3.249l-0.803-0.415l0.489-0.761c2.284-3.546,5.161-6.574,9.027-8.951L70.103,105.462z"/>
	<path fill="#004A74" d="M101.322,30.317c-3.526-2.708-6.262-4.516-10.254-5.742c-0.453,3.513-0.295,7.19,0.623,11.431l-1.663-0.114
		c-0.876-4.183-1.12-8.33-0.429-12.525l0.159-0.887l0.871,0.248c4.06,1.145,7.795,3.015,11.197,6.023L101.322,30.317z"/>
	<path fill-rule="evenodd" clip-rule="evenodd" fill="#004A74" d="M137.52,84.934c2.385,0,4.329,1.947,4.329,4.337
		c0,2.385-1.944,4.332-4.329,4.332c-2.388,0-4.332-1.947-4.332-4.332C133.188,86.881,135.132,84.934,137.52,84.934 M137.52,86.227
		c1.674,0,3.04,1.367,3.04,3.044c0,1.676-1.366,3.043-3.04,3.043c-1.677,0-3.045-1.367-3.045-3.043
		C134.475,87.594,135.843,86.227,137.52,86.227z"/>
	<path fill-rule="evenodd" clip-rule="evenodd" fill="#004A74" d="M137.52,79.538c5.363,0,9.739,4.372,9.739,9.733
		c0,5.355-4.376,9.729-9.739,9.729c-5.366,0-9.742-4.373-9.742-9.729C127.777,83.909,132.153,79.538,137.52,79.538 M137.52,80.912
		c4.606,0,8.365,3.755,8.365,8.359c0,4.603-3.759,8.355-8.365,8.355c-4.61,0-8.368-3.752-8.368-8.355
		C129.151,84.667,132.909,80.912,137.52,80.912z"/>
	<path fill-rule="evenodd" clip-rule="evenodd" fill="#004A74" d="M137.52,76.253c7.171,0,13.023,5.846,13.023,13.013
		c0,7.171-5.853,13.018-13.023,13.018c-7.175,0-13.023-5.846-13.023-13.018C124.496,82.1,130.345,76.253,137.52,76.253
		 M137.52,77.208c6.646,0,12.068,5.419,12.068,12.058c0,6.646-5.422,12.062-12.068,12.062s-12.068-5.416-12.068-12.062
		C125.451,82.628,130.873,77.208,137.52,77.208z"/>
	<path fill="#004A74" d="M162.517,64.263c-6.397-6.398-15.235-10.355-24.997-10.355c-9.765,0-18.603,3.957-25,10.355
		c-6.399,6.402-10.353,15.24-10.353,25.008c0,9.763,3.953,18.602,10.353,25.003c6.397,6.397,15.235,10.355,25,10.355
		c9.762,0,18.6-3.958,24.997-10.355c6.397-6.402,10.354-15.24,10.354-25.003C172.871,79.503,168.914,70.665,162.517,64.263
		 M100.979,91.149c-0.022-0.45-0.039-0.903-0.046-1.357c-0.671,0.098-1.334,0.209-1.977,0.362c-0.509,0.124-1.006,0.271-1.492,0.463
		c0.52,0.163,1.034,0.291,1.557,0.379C99.671,91.106,100.324,91.156,100.979,91.149z M101.165,93.417
		c-0.049-0.418-0.088-0.839-0.121-1.263c-0.482,0.134-0.949,0.291-1.396,0.474c-0.332,0.136-0.654,0.284-0.964,0.447
		c0.365,0.091,0.73,0.163,1.096,0.218C100.242,93.365,100.706,93.407,101.165,93.417z M101.469,95.547
		c-0.063-0.346-0.118-0.694-0.166-1.047c-0.369,0.146-0.725,0.314-1.061,0.5c-0.283,0.16-0.558,0.332-0.819,0.522
		c0.317,0.054,0.63,0.087,0.936,0.098C100.734,95.629,101.104,95.606,101.469,95.547z M101.893,97.638
		c-0.088-0.368-0.166-0.74-0.241-1.116c-0.343,0.154-0.666,0.32-0.97,0.503c-0.279,0.173-0.545,0.359-0.785,0.562
		c0.316,0.093,0.63,0.149,0.945,0.163C101.188,97.767,101.541,97.727,101.893,97.638z M102.445,99.717
		c-0.115-0.382-0.223-0.77-0.323-1.158c-0.288,0.14-0.562,0.292-0.819,0.463c-0.248,0.16-0.483,0.332-0.698,0.522
		c0.332,0.116,0.655,0.195,0.968,0.225C101.87,99.798,102.16,99.786,102.445,99.717z M103.19,101.964
		c-0.155-0.43-0.31-0.863-0.452-1.301c-0.256,0.16-0.503,0.332-0.731,0.522c-0.264,0.211-0.505,0.444-0.725,0.7
		c0.317,0.106,0.641,0.167,0.964,0.18C102.556,102.079,102.872,102.046,103.19,101.964z M103.965,103.883
		c-0.15-0.343-0.291-0.688-0.432-1.034c-0.352,0.196-0.669,0.41-0.944,0.649c-0.223,0.188-0.416,0.396-0.585,0.613
		c0.323,0.007,0.644-0.009,0.962-0.045C103.303,104.026,103.635,103.964,103.965,103.883z M105.084,106.223
		c-0.242-0.47-0.48-0.943-0.705-1.422c-0.425,0.25-0.799,0.537-1.122,0.857c-0.291,0.284-0.539,0.601-0.744,0.943
		c0.45-0.004,0.894-0.04,1.332-0.109C104.261,106.428,104.676,106.336,105.084,106.223z M106.066,107.974
		c-0.174-0.287-0.343-0.58-0.506-0.877c-0.5,0.284-0.952,0.601-1.354,0.953c-0.326,0.287-0.615,0.604-0.859,0.949
		c0.398-0.051,0.8-0.144,1.201-0.278c0.395-0.133,0.796-0.313,1.194-0.531C105.851,108.119,105.958,108.046,106.066,107.974z
		 M107.3,109.906c-0.262-0.385-0.52-0.773-0.768-1.168c-0.104,0.065-0.212,0.128-0.319,0.19c-0.548,0.371-1.045,0.773-1.481,1.203
		c-0.438,0.427-0.819,0.884-1.146,1.367c0.571-0.092,1.139-0.264,1.703-0.502C105.965,110.712,106.634,110.336,107.3,109.906z
		 M108.643,111.743c-0.283-0.365-0.564-0.738-0.834-1.112c-0.768,0.551-1.488,1.132-2.135,1.755
		c-0.528,0.512-1.009,1.054-1.422,1.641c0.686-0.183,1.356-0.441,2.02-0.767c0.548-0.271,1.09-0.587,1.621-0.949
		C108.138,112.122,108.385,111.932,108.643,111.743z M109.828,113.188c-0.213-0.245-0.418-0.489-0.624-0.74
		c-0.264,0.199-0.531,0.391-0.8,0.574c-0.806,0.632-1.536,1.295-2.205,1.98c-0.75,0.767-1.419,1.559-2.02,2.375
		c0.183-0.04,0.365-0.085,0.545-0.141c0.477-0.146,0.943-0.358,1.39-0.675C107.267,115.42,108.5,114.323,109.828,113.188z
		 M111.38,114.878c-0.329-0.339-0.655-0.685-0.973-1.034c-1.362,1.164-2.629,2.287-3.79,3.451c-1.048,1.044-2.02,2.128-2.921,3.312
		c0.277-0.051,0.556-0.113,0.829-0.196c0.584-0.169,1.171-0.417,1.755-0.801C107.785,117.997,109.54,116.446,111.38,114.878z
		 M107.825,122.952c0.857-0.826,1.734-1.632,2.612-2.441c1.181-1.079,2.358-2.161,3.475-3.281c-0.656-0.554-1.292-1.135-1.909-1.736
		c-1.989,1.694-3.872,3.357-5.438,5.096c-1.501,1.668-2.711,3.407-3.436,5.301c0.732-0.253,1.42-0.583,2.081-0.975
		C106.114,124.382,106.969,123.725,107.825,122.952z M101.173,85.052c-1.272,0-2.536,0.036-3.767,0.16
		c-1.026,0.104-2.028,0.271-2.998,0.528c1.02,0.382,2.036,0.604,3.048,0.711c1.2,0.124,2.391,0.089,3.585-0.036
		C101.077,85.959,101.12,85.505,101.173,85.052z M100.985,87.296c-0.992,0.102-1.983,0.138-2.981,0.076
		c-0.536,0.098-1.044,0.237-1.522,0.419c-0.196,0.076-0.386,0.157-0.568,0.25c0.818,0.267,1.631,0.463,2.431,0.59
		c0.874,0.144,1.739,0.208,2.59,0.211C100.94,88.325,100.957,87.808,100.985,87.296z M103.381,76.08
		c-1.527-0.681-3.018-1.438-4.512-2.195c-3.318-1.685-6.636-3.368-10.212-4.202c-2.758-0.646-5.648-0.424-8.538-0.2
		c-1.027,0.079-2.056,0.157-3.09,0.2c0.826,0.613,1.628,1.252,2.431,1.896c2.262,1.804,4.525,3.611,7.145,4.672
		c3.407,1.374,7.073,1.961,10.744,2.548c1.634,0.256,3.266,0.522,4.861,0.844C102.539,78.428,102.931,77.242,103.381,76.08z
		 M101.351,83.718c-2.462-0.245-4.841-0.522-7.037-0.998c-0.473-0.007-0.981,0.068-1.458,0.198
		c-0.186,0.053-0.365,0.109-0.534,0.174c2.515,0.952,4.728,0.975,6.857,0.998c0.711,0.008,1.416,0.017,2.107,0.053
		C101.309,84.001,101.328,83.858,101.351,83.718z M93.733,79.099c-1.157-0.154-2.252-0.21-3.309-0.134
		c-0.77,0.056-1.52,0.18-2.268,0.385c1.678,1.146,3.658,1.882,5.844,2.402c2.313,0.545,4.852,0.844,7.49,1.104
		c0.141-0.798,0.311-1.585,0.499-2.365c-1.588-0.323-3.184-0.577-4.778-0.834c-1.163-0.183-2.32-0.369-3.476-0.577L93.733,79.099z
		 M104.764,72.947c-2.371-1.321-4.675-2.557-6.934-3.444c-2.087-0.818-4.139-1.341-6.169-1.354c0.497,0.593,1.045,1.123,1.646,1.604
		c0.821,0.663,1.748,1.241,2.785,1.775c1.063,0.506,2.117,1.042,3.171,1.576c1.475,0.747,2.95,1.494,4.441,2.166
		C104.03,74.481,104.386,73.708,104.764,72.947z M105.828,70.972c-1.276-0.836-2.591-1.604-3.971-2.255
		c-1.26-0.596-2.575-1.102-3.961-1.478c0.146,0.228,0.31,0.455,0.486,0.68c0.378,0.489,0.818,0.961,1.308,1.425
		c1.795,0.809,3.612,1.792,5.472,2.829C105.378,71.767,105.6,71.365,105.828,70.972z M106.982,69.104l-0.188-0.11
		c-1.792-1.064-3.584-2.127-5.458-2.891c0.152,0.257,0.325,0.515,0.518,0.77c0.421,0.562,0.94,1.11,1.553,1.644
		c0.983,0.522,1.936,1.093,2.865,1.704C106.503,69.842,106.738,69.474,106.982,69.104z M108.343,67.187
		c-0.733-0.542-1.465-1.051-2.186-1.481c-0.555-0.33-1.106-0.617-1.658-0.845c0.337,0.6,0.738,1.155,1.191,1.676
		c0.545,0.631,1.168,1.21,1.834,1.769C107.792,67.927,108.062,67.552,108.343,67.187z M109.727,65.467
		c-0.51-0.375-1.027-0.731-1.576-1.038c-0.451-0.25-0.92-0.472-1.412-0.642c0.228,0.395,0.502,0.783,0.809,1.165
		c0.408,0.502,0.874,0.995,1.377,1.484C109.185,66.11,109.452,65.787,109.727,65.467z M111.034,64.022
		c-0.388-0.343-0.779-0.656-1.187-0.923c-0.304-0.202-0.617-0.379-0.94-0.522c0.183,0.443,0.398,0.829,0.633,1.174
		c0.252,0.365,0.529,0.692,0.819,0.999C110.581,64.502,110.806,64.26,111.034,64.022z M112.464,62.599
		c-0.298-0.245-0.604-0.473-0.924-0.675c-0.281-0.177-0.577-0.333-0.897-0.46c0.135,0.343,0.29,0.656,0.464,0.953
		c0.186,0.317,0.391,0.617,0.609,0.907C111.964,63.079,112.213,62.837,112.464,62.599z M113.862,61.35
		c-0.244-0.245-0.508-0.477-0.798-0.683c-0.249-0.176-0.517-0.333-0.81-0.466c0.116,0.307,0.251,0.594,0.397,0.861
		c0.167,0.303,0.354,0.591,0.553,0.862C113.422,61.728,113.641,61.539,113.862,61.35z M115.472,60.064
		c-0.264-0.219-0.528-0.438-0.792-0.653c-0.148-0.121-0.298-0.238-0.444-0.355c0.039,0.239,0.088,0.47,0.146,0.701
		c0.082,0.313,0.183,0.617,0.307,0.914C114.946,60.465,115.208,60.263,115.472,60.064z M116.973,58.985
		c-0.458-0.584-0.917-1.155-1.543-1.498c0.006,0.296,0.081,0.597,0.205,0.896c0.149,0.362,0.374,0.722,0.646,1.084
		C116.509,59.305,116.74,59.145,116.973,58.985z M118.401,58.062c-0.404-0.483-0.819-0.943-1.269-1.253
		c0.112,0.679,0.365,1.178,0.638,1.648C117.98,58.322,118.189,58.188,118.401,58.062z M119.993,57.138
		c-0.358-0.521-0.737-1.031-1.266-1.455c0.049,0.32,0.127,0.624,0.215,0.91c0.105,0.323,0.229,0.63,0.359,0.93
		C119.529,57.392,119.762,57.265,119.993,57.138z M121.768,56.228c-0.261-0.385-0.531-0.76-0.828-1.109
		c-0.262-0.31-0.542-0.598-0.854-0.848c0.017,0.424,0.088,0.825,0.199,1.207c0.127,0.427,0.307,0.835,0.521,1.23
		C121.122,56.541,121.445,56.384,121.768,56.228z M123.751,55.354l-0.042-0.059c-0.559-0.822-1.099-1.615-1.814-2.296
		c0.047,0.408,0.112,0.815,0.207,1.22c0.124,0.542,0.299,1.077,0.537,1.609C123.007,55.663,123.377,55.504,123.751,55.354z
		 M126.28,54.434c-0.395-0.676-0.807-1.325-1.27-1.916c-0.425-0.538-0.887-1.024-1.412-1.432c0.029,0.666,0.146,1.298,0.319,1.912
		c0.189,0.682,0.454,1.344,0.754,1.996C125.2,54.796,125.738,54.606,126.28,54.434z M128.569,53.778
		c-0.27-1.07-0.593-2.111-1.049-3.063c-0.404-0.849-0.918-1.631-1.596-2.307c-0.007,0.999,0.082,1.986,0.273,2.943
		c0.199,0.975,0.514,1.918,0.952,2.812C127.622,54.025,128.095,53.896,128.569,53.778z M130.831,49.853
		c-0.301-1.341-0.655-2.571-1.102-3.621c-0.314-0.738-0.672-1.388-1.084-1.919c-0.199,0.858-0.31,1.736-0.359,2.626
		c-0.063,1.138-0.02,2.307,0.066,3.484c0.463,0.996,0.792,2.062,1.065,3.149c0.68-0.154,1.368-0.288,2.059-0.401
		C131.243,52.048,131.021,50.942,130.831,49.853z M139.494,52.727c0.169-1.677,0.407-3.328,0.648-4.979
		c0.534-3.677,1.073-7.357,0.776-11.018c-0.229-2.822-1.275-5.517-2.323-8.215c-0.371-0.959-0.744-1.918-1.082-2.888
		c-0.346,0.969-0.73,1.932-1.112,2.891c-1.078,2.691-2.154,5.383-2.359,8.208c-0.268,3.664,0.346,7.334,0.958,11.004
		c0.281,1.658,0.559,3.318,0.758,4.982c0.581-0.026,1.172-0.04,1.762-0.04C138.182,52.675,138.84,52.691,139.494,52.727z
		 M134.884,52.766c-0.196-1.625-0.471-3.256-0.744-4.891c-0.193-1.162-0.388-2.326-0.556-3.491c-0.202-1.155-0.476-2.212-0.86-3.194
		c-0.28-0.721-0.623-1.399-1.041-2.052c-0.594,1.941-0.708,4.055-0.552,6.297c0.174,2.404,0.663,4.958,1.211,7.602
		C133.18,52.919,134.028,52.828,134.884,52.766z M142.753,53.047c0.548-2.646,1.037-5.204,1.206-7.611
		c0.164-2.242,0.05-4.356-0.544-6.297c-0.421,0.653-0.761,1.331-1.044,2.052c-0.385,0.982-0.66,2.039-0.862,3.194l-0.02-0.003
		c-0.144,1.165-0.313,2.326-0.483,3.491c-0.236,1.645-0.479,3.289-0.642,4.91C141.166,52.845,141.963,52.932,142.753,53.047z
		 M147.47,54.042c0.056-0.249,0.115-0.499,0.18-0.75c0.199-0.939,0.365-1.892,0.489-2.838c0.124-0.936,0.205-1.87,0.241-2.79
		c-0.531,0.666-0.955,1.475-1.295,2.365c-0.431,1.129-0.73,2.388-0.949,3.667C146.582,53.803,147.026,53.918,147.47,54.042z
		 M149.503,54.681c0.212-0.858,0.4-1.723,0.525-2.593c0.107-0.725,0.169-1.455,0.172-2.196c-0.534,0.685-0.91,1.367-1.19,2.048
		c-0.215,0.52-0.379,1.041-0.512,1.566c-0.06,0.264-0.118,0.525-0.177,0.79C148.717,54.417,149.11,54.547,149.503,54.681z
		 M151.473,55.431c0.396-0.992,0.757-2.003,0.877-3.109c-0.338,0.388-0.648,0.783-0.936,1.181c-0.359,0.499-0.675,1.009-0.958,1.523
		C150.798,55.157,151.137,55.292,151.473,55.431z M153.361,56.273c0.177-0.447,0.311-0.92,0.415-1.419
		c0.088-0.42,0.149-0.857,0.196-1.311c-0.264,0.257-0.51,0.541-0.741,0.841c-0.329,0.434-0.626,0.904-0.901,1.413
		C152.678,55.951,153.019,56.11,153.361,56.273z M155.428,57.35c0.231-0.701,0.459-1.514,0.528-2.361
		c-0.269,0.202-0.528,0.434-0.78,0.682c-0.335,0.33-0.649,0.688-0.924,1.047C154.647,56.923,155.043,57.132,155.428,57.35z
		 M157.032,58.306c0.135-0.323,0.248-0.653,0.332-0.982c0.082-0.307,0.135-0.621,0.163-0.943c-0.26,0.189-0.481,0.401-0.675,0.63
		c-0.219,0.258-0.404,0.542-0.573,0.835C156.533,57.996,156.785,58.149,157.032,58.306z M158.777,59.483
		c0.196-0.626,0.365-1.263,0.401-1.879c-0.228,0.16-0.46,0.343-0.675,0.545c-0.232,0.212-0.451,0.447-0.646,0.698
		C158.168,59.053,158.477,59.266,158.777,59.483z M160.474,60.772c0.233-0.532,0.455-1.067,0.604-1.585
		c-0.169,0.101-0.34,0.212-0.506,0.333c-0.287,0.208-0.567,0.44-0.822,0.682C159.994,60.388,160.235,60.58,160.474,60.772z
		 M162.092,62.159c0.334-0.522,0.68-1.09,0.897-1.694c-0.254,0.134-0.502,0.274-0.737,0.428c-0.313,0.198-0.609,0.414-0.877,0.629
		C161.617,61.732,161.858,61.944,162.092,62.159z M163.466,63.471c0.284-0.336,0.528-0.682,0.73-1.035
		c0.154-0.277,0.287-0.558,0.393-0.848c-0.311,0.125-0.598,0.274-0.868,0.454c-0.333,0.216-0.637,0.476-0.921,0.776
		c0.199,0.189,0.396,0.378,0.591,0.574C163.413,63.418,163.443,63.444,163.466,63.471z M165.009,65.122
		c0.333-0.379,0.634-0.774,0.885-1.191v0.003c0.235-0.391,0.424-0.799,0.564-1.233c-0.396,0.127-0.773,0.303-1.136,0.522
		c-0.421,0.251-0.822,0.558-1.213,0.907C164.412,64.456,164.716,64.786,165.009,65.122z M166.323,66.704
		c0.879-0.803,1.756-1.697,2.226-2.881c-0.473,0.231-0.95,0.502-1.409,0.803c-0.542,0.358-1.063,0.753-1.539,1.184
		C165.848,66.106,166.086,66.404,166.323,66.704z M167.789,68.707l0.16-0.148c1.242-1.144,2.54-2.345,3.217-3.657
		c-0.584,0.212-1.194,0.503-1.801,0.846c-0.852,0.476-1.7,1.057-2.489,1.679C167.188,67.845,167.492,68.272,167.789,68.707z
		 M169.289,71.107c0.979-0.79,1.913-1.604,2.741-2.476c0.712-0.741,1.344-1.523,1.86-2.365c-0.876,0.32-1.733,0.714-2.575,1.18
		c-1.028,0.572-2.032,1.247-3.018,2.03C168.641,70.011,168.973,70.556,169.289,71.107z M145.281,53.5
		c0.166-0.965,0.382-1.925,0.662-2.832l-0.056-0.003c0.075-1.194,0.13-2.417,0.124-3.628c-0.006-0.868-0.045-1.735-0.138-2.587
		c-0.101,0.157-0.202,0.33-0.303,0.509c-0.301,0.545-0.588,1.171-0.852,1.791c-0.229,2.065-0.644,4.218-1.103,6.431
		C144.175,53.275,144.73,53.38,145.281,53.5z M169.93,72.276c1.947-1.08,3.853-2.102,5.729-2.917
		c0.509-0.391,0.936-0.82,1.278-1.295c0.19-0.267,0.356-0.548,0.497-0.845c-0.755,0.213-1.495,0.483-2.217,0.8
		c-0.961,0.419-1.901,0.922-2.814,1.487c-0.823,0.832-1.736,1.612-2.683,2.376C169.792,72.012,169.86,72.146,169.93,72.276z
		 M172.875,79.826c1.53-0.308,3.093-0.556,4.656-0.806c3.667-0.584,7.336-1.171,10.74-2.545c2.622-1.061,4.883-2.868,7.145-4.672
		c0.806-0.643,1.608-1.283,2.433-1.896c-1.033-0.042-2.062-0.121-3.088-0.199c-2.891-0.225-5.784-0.447-8.542,0.199
		c-3.571,0.839-6.895,2.52-10.212,4.203c-1.422,0.721-2.849,1.441-4.299,2.104C172.157,77.388,172.549,78.596,172.875,79.826z
		 M171.388,75.399c1.419-0.646,2.821-1.359,4.229-2.07c1.053-0.534,2.106-1.07,3.171-1.576c1.037-0.538,1.964-1.112,2.785-1.771
		c0.601-0.486,1.148-1.015,1.646-1.609c-2.03,0.011-4.082,0.536-6.17,1.354c-2.192,0.862-4.424,2.05-6.722,3.326
		C170.705,73.823,171.062,74.602,171.388,75.399z M173.579,83.063c2.571-0.258,5.041-0.556,7.299-1.087
		c2.183-0.516,4.166-1.256,5.84-2.401c-0.744-0.206-1.497-0.329-2.267-0.385c-1.059-0.075-2.146-0.02-3.306,0.131l-0.004-0.02
		c-1.154,0.211-2.313,0.397-3.475,0.583c-1.526,0.242-3.054,0.486-4.576,0.794C173.279,81.459,173.442,82.256,173.579,83.063z
		 M173.891,85.263c0.365-0.032,0.658-0.057,0.955-0.082v-0.003c2.666-0.228,5.33-0.459,7.771-1.23
		c-0.229-0.065-0.476-0.133-0.734-0.198v-0.005c-0.737-0.188-1.608-0.374-2.562-0.557c-1.781,0.323-3.663,0.542-5.604,0.733
		C173.782,84.37,173.841,84.816,173.891,85.263z M174.065,87.538l0.252-0.011c1.902-0.062,3.808-0.124,6.303-0.743
		c-0.751-0.261-1.615-0.418-2.555-0.51c-1.262-0.124-2.658-0.127-4.088-0.097C174.015,86.628,174.043,87.081,174.065,87.538z
		 M174.102,89.676c0.896,0.02,1.798,0,2.702-0.076c0.736-0.062,1.474-0.157,2.212-0.294c-1.459-0.691-3.172-0.806-4.92-0.854
		c0.006,0.271,0.009,0.545,0.009,0.82C174.104,89.404,174.104,89.538,174.102,89.676z M174.023,91.718
		c0.676,0.038,1.354,0.055,2.025,0.026c0.517-0.02,1.034-0.065,1.554-0.144c-0.428-0.21-0.885-0.376-1.366-0.516
		c-0.677-0.195-1.407-0.34-2.154-0.459C174.065,90.99,174.049,91.355,174.023,91.718z M173.827,93.803
		c0.575,0.093,1.143,0.16,1.699,0.179c0.469,0.015,0.927,0,1.379-0.063c-0.354-0.287-0.761-0.512-1.208-0.694
		c-0.536-0.222-1.132-0.388-1.749-0.535C173.913,93.062,173.874,93.433,173.827,93.803z M173.521,95.812
		c0.461,0.068,0.904,0.098,1.328,0.088c0.372-0.009,0.728-0.052,1.07-0.127c-0.18-0.144-0.418-0.284-0.694-0.421
		c-0.435-0.211-0.957-0.407-1.527-0.593C173.645,95.11,173.586,95.463,173.521,95.812z M173.067,97.958
		c0.467,0.065,0.914,0.095,1.341,0.082c0.376-0.006,0.738-0.045,1.081-0.121c-0.246-0.225-0.542-0.417-0.873-0.59
		c-0.388-0.205-0.824-0.382-1.281-0.551C173.25,97.175,173.163,97.57,173.067,97.958z M172.489,100.056
		c0.382,0.04,0.755,0.053,1.106,0.037c0.317-0.017,0.624-0.056,0.917-0.118c-0.183-0.173-0.392-0.336-0.63-0.486
		c-0.313-0.199-0.672-0.382-1.067-0.551C172.712,99.312,172.604,99.685,172.489,100.056z M171.717,102.307
		c0.368,0.039,0.753,0.069,1.138,0.078c0.396,0.014,0.794,0.003,1.183-0.039c-0.232-0.234-0.506-0.45-0.801-0.652
		c-0.339-0.232-0.707-0.441-1.076-0.626C172.021,101.486,171.874,101.896,171.717,102.307z M170.895,104.281
		c0.372,0.076,0.737,0.133,1.09,0.169c0.322,0.033,0.643,0.045,0.949,0.036c-0.169-0.206-0.368-0.396-0.597-0.571
		c-0.297-0.229-0.64-0.432-1.019-0.614C171.183,103.632,171.042,103.958,170.895,104.281z M170.118,105.896
		c0.382,0.133,0.764,0.237,1.142,0.296c0.319,0.05,0.64,0.069,0.966,0.039c-0.205-0.172-0.434-0.335-0.675-0.483
		c-0.337-0.205-0.702-0.388-1.081-0.56C170.356,105.426,170.239,105.661,170.118,105.896z M168.82,108.229
		c0.476,0.157,0.955,0.268,1.438,0.337c0.457,0.065,0.913,0.09,1.373,0.087c-0.235-0.306-0.509-0.598-0.809-0.877
		c-0.362-0.336-0.764-0.657-1.188-0.966C169.374,107.29,169.101,107.762,168.82,108.229z M167.848,109.743
		c0.649,0.313,1.299,0.562,1.947,0.747c0.47,0.13,0.937,0.231,1.402,0.293c-0.296-0.25-0.626-0.489-0.98-0.714
		c-0.575-0.368-1.22-0.708-1.896-1.04C168.163,109.271,168.008,109.507,167.848,109.743z M166.618,111.452
		c0.775,0.51,1.559,0.949,2.352,1.283c0.659,0.278,1.328,0.48,2.003,0.587c-0.428-0.52-0.919-0.989-1.458-1.416
		c-0.658-0.528-1.394-0.995-2.176-1.429C167.104,110.805,166.865,111.133,166.618,111.452z M164.813,113.639
		c0.989,0.664,2.013,1.242,3.077,1.715c0.919,0.412,1.871,0.747,2.857,1c-0.558-0.716-1.188-1.38-1.88-2.011
		c-0.849-0.779-1.79-1.503-2.789-2.198C165.671,112.653,165.247,113.151,164.813,113.639z M162.938,115.589
		c1.289,1.129,2.683,2.104,4.166,2.904c1.166,0.626,2.389,1.147,3.661,1.552c-0.369-0.56-0.771-1.115-1.194-1.657
		c-0.613-0.782-1.275-1.526-1.978-2.211l-0.059-0.026c-1.149-0.513-2.254-1.14-3.318-1.859c-0.27,0.29-0.545,0.573-0.825,0.854
		C163.241,115.294,163.087,115.442,162.938,115.589z M157.552,119.896c0.905,1.436,1.751,2.924,2.6,4.411
		c1.837,3.23,3.674,6.461,6.157,9.164c1.914,2.089,4.396,3.57,6.88,5.053c0.885,0.525,1.765,1.055,2.63,1.613
		c-0.323-0.98-0.61-1.972-0.898-2.966c-0.805-2.787-1.61-5.572-3.184-7.928c-2.039-3.046-4.779-5.565-7.523-8.084
		c-1.233-1.135-2.47-2.271-3.651-3.464C159.597,118.477,158.592,119.21,157.552,119.896z M168.428,123.947
		c0.617,0.303,1.137,0.578,1.643,0.845c0.371,0.199,0.736,0.391,1.112,0.581c-1.466-2.222-2.924-4.326-4.728-6.242
		c-1.479-0.818-2.865-1.804-4.154-2.939c-0.349,0.32-0.704,0.632-1.066,0.942c1.145,1.152,2.358,2.264,3.572,3.376
		C166.033,121.641,167.261,122.77,168.428,123.947z M150.706,123.416c0.025,0.112,0.05,0.222,0.075,0.332
		c0.296,1.208,0.669,2.32,1.106,3.342c0.355,0.829,0.757,1.599,1.2,2.31c0-0.995-0.081-1.98-0.232-2.958
		c-0.183-1.194-0.473-2.382-0.835-3.564C151.588,123.064,151.15,123.244,150.706,123.416z M148.602,124.157
		c0.011,0.074,0.02,0.152,0.029,0.231c0.16,0.927,0.415,1.792,0.744,2.604c0.28,0.688,0.62,1.337,1.002,1.955
		c0.056-0.637,0.052-1.319-0.003-2.042c-0.066-0.918-0.216-1.893-0.438-2.924c-0.02-0.085-0.039-0.169-0.063-0.255
		C149.453,123.876,149.029,124.02,148.602,124.157z M146.472,124.761c0.085,0.726,0.223,1.422,0.431,2.071
		c0.16,0.509,0.362,0.995,0.609,1.449c0.166-0.607,0.265-1.218,0.307-1.828c0.042-0.646,0.02-1.292-0.054-1.938l-0.017-0.101
		C147.326,124.539,146.902,124.652,146.472,124.761z M144.22,125.253c-0.006,0.082-0.009,0.163-0.02,0.244
		c0.008,0.509,0.086,0.976,0.222,1.413c0.121,0.391,0.295,0.756,0.5,1.109c0.16-0.46,0.28-0.933,0.371-1.416
		c0.099-0.525,0.168-1.064,0.21-1.612C145.079,125.087,144.651,125.171,144.22,125.253z M142.23,125.562
		c0.067,0.582,0.177,1.081,0.31,1.525c0.078,0.253,0.163,0.492,0.255,0.714c0.121-0.31,0.222-0.632,0.307-0.975
		c0.104-0.424,0.18-0.871,0.225-1.342c0-0.026,0-0.051,0-0.079C142.961,125.464,142.599,125.517,142.23,125.562z M140.354,125.755
		c0.013,0.593,0.104,1.057,0.244,1.438c0.085,0.228,0.186,0.433,0.304,0.626c0.128-0.32,0.222-0.643,0.291-0.979
		c0.078-0.375,0.121-0.766,0.13-1.17C141,125.703,140.677,125.733,140.354,125.755z M138.059,125.859
		c0.129,0.652,0.299,1.178,0.485,1.612c0.11,0.264,0.229,0.495,0.346,0.7c0.301-0.694,0.425-1.509,0.522-2.354
		C138.964,125.84,138.511,125.854,138.059,125.859z M135.81,125.826c0,0.416,0.043,0.803,0.128,1.16
		c0.074,0.309,0.183,0.596,0.326,0.86c0.157-0.25,0.287-0.538,0.394-0.852c0.126-0.349,0.223-0.73,0.309-1.135
		C136.576,125.856,136.195,125.843,135.81,125.826z M133.686,125.667c-0.029,0.51-0.009,0.985,0.05,1.436
		c0.039,0.294,0.095,0.575,0.166,0.848c0.146-0.284,0.287-0.574,0.418-0.88c0.172-0.412,0.332-0.849,0.473-1.306
		C134.421,125.739,134.052,125.703,133.686,125.667z M131.617,125.39c-0.042,0.534-0.039,1.023,0.006,1.484
		c0.033,0.333,0.09,0.649,0.16,0.953c0.213-0.31,0.396-0.636,0.545-0.979c0.183-0.407,0.323-0.839,0.432-1.289
		C132.378,125.506,131.996,125.452,131.617,125.39z M129.294,124.936c-0.098,0.626-0.126,1.23-0.101,1.821
		c0.027,0.5,0.092,0.992,0.193,1.488c0.238-0.284,0.443-0.629,0.629-1.034c0.259-0.559,0.47-1.224,0.666-1.983
		C130.218,125.138,129.755,125.04,129.294,124.936z M127.204,124.391c-0.16,0.806-0.259,1.59-0.295,2.354
		c-0.025,0.61-0.015,1.209,0.039,1.807c0.657-1.028,1.022-2.303,1.433-3.752c0.014-0.038,0.011-0.025,0.022-0.077
		C128.002,124.616,127.603,124.505,127.204,124.391z M125.266,123.761l-0.022,0.065c-0.376,1.14-0.649,2.183-0.832,3.135
		c-0.135,0.708-0.219,1.368-0.258,1.978c0.332-0.408,0.643-0.907,0.933-1.5c0.44-0.896,0.842-2.006,1.236-3.318
		C125.971,124.006,125.617,123.885,125.266,123.761z M154.752,121.559c1.22,2.486,2.43,4.865,3.812,6.919
		c1.248,1.867,2.635,3.463,4.299,4.629c-0.071-0.77-0.219-1.52-0.437-2.259c-0.301-1.016-0.738-2.017-1.286-3.051l0.017-0.011
		c-0.601-1.004-1.185-2.029-1.765-3.051c-0.836-1.47-1.674-2.942-2.578-4.371C156.142,120.786,155.453,121.185,154.752,121.559z
		 M156.766,127.259c-0.973-1.651-1.88-3.445-2.79-5.298c-0.379,0.189-0.761,0.376-1.146,0.556c0.52,1.503,1.146,2.942,1.87,4.31
		c0.658,1.245,1.402,2.433,2.234,3.565c0.042-0.307,0.062-0.626,0.064-0.956C157.01,128.773,156.935,128.051,156.766,127.259z
		 M123.229,122.969c-0.355,1.537-0.793,2.914-1.347,4.156c-0.099,0.595-0.135,1.146-0.138,1.654c0,0.183,0.003,0.359,0.014,0.533
		c0.434-0.688,0.849-1.449,1.239-2.272c0.503-1.054,0.966-2.206,1.399-3.438l0.05-0.144
		C124.035,123.301,123.631,123.138,123.229,122.969z M118.223,127.689c-0.268,0.438-0.536,0.862-0.813,1.275
		c-1.491,2.222-3.179,4.085-5.286,5.352l-0.672,0.404l0.014-0.786c0.012-0.9,0.127-1.762,0.323-2.607
		c-0.683,0.949-1.413,1.867-2.21,2.733c-1.996,2.18-4.538,3.697-7.077,5.211c-1.846,1.105-3.431,2.129-5.144,3.418
		c1.017-2.02,1.497-3.582,2.127-5.761c0.825-2.852,1.651-5.703,3.298-8.169c0.614-0.916,1.283-1.781,1.994-2.613
		c-0.705,0.346-1.441,0.626-2.226,0.839l-0.761,0.205l0.229-0.755c0.568-1.877,1.575-3.594,2.871-5.226
		c-0.039,0.014-0.081,0.025-0.125,0.039c-0.672,0.196-1.334,0.297-1.989,0.379l-0.973,0.116l0.564-0.801
		c0.688-0.983,1.422-1.89,2.199-2.758c-0.428,0.105-0.861,0.17-1.292,0.219l-0.94,0.104l0.528-0.782
		c0.731-1.084,1.564-2.138,2.522-3.14c-0.648,0.232-1.312,0.406-1.986,0.505l-0.879,0.131l0.436-0.776
		c0.469-0.845,1.06-1.609,1.735-2.311c-0.629,0.187-1.267,0.294-1.918,0.304l-0.738,0.01l0.35-0.652
		c0.386-0.719,0.864-1.381,1.442-1.991c-0.428,0.079-0.854,0.112-1.282,0.107l-0.692-0.009l0.307-0.624
		c0.358-0.72,0.855-1.34,1.455-1.876c-0.594,0.072-1.203,0.089-1.833,0.042l-0.614-0.045l0.241-0.562
		c0.295-0.681,0.702-1.281,1.23-1.804c0.027-0.025,0.053-0.048,0.075-0.071c-0.499,0.036-1.008,0.022-1.522-0.042l-0.617-0.078
		l0.283-0.553c0.265-0.515,0.62-0.975,1.067-1.376c-0.517-0.055-1.025-0.211-1.521-0.45l-0.454-0.219l0.278-0.417
		c0.313-0.463,0.682-0.862,1.093-1.21c-0.555-0.079-1.113-0.268-1.671-0.522l-0.538-0.245l0.392-0.444
		c0.267-0.303,0.57-0.578,0.897-0.823c-0.502-0.068-1.002-0.217-1.494-0.45L98.36,97.88l0.413-0.439
		c0.346-0.362,0.734-0.686,1.166-0.974c-0.53-0.045-1.062-0.149-1.604-0.31l-0.747-0.222l0.581-0.522
		c0.506-0.453,1.054-0.844,1.648-1.174l0.078-0.045c-0.086-0.009-0.167-0.022-0.249-0.033c-0.73-0.113-1.461-0.292-2.194-0.531
		l-0.859-0.284l0.755-0.495c0.558-0.37,1.15-0.686,1.777-0.954c-0.082-0.012-0.163-0.022-0.248-0.038
		c-0.913-0.154-1.817-0.421-2.717-0.791l-0.849-0.349l0.807-0.441c0.635-0.343,1.304-0.599,1.989-0.798
		c-1.106-0.186-2.231-0.489-3.377-0.933l-0.759-0.294l0.664-0.469c0.393-0.278,0.816-0.506,1.263-0.699
		c-0.975-0.208-1.957-0.538-2.943-1.015l-0.936-0.45l0.982-0.352c0.652-0.236,1.321-0.421,2-0.565
		c-1.227-0.196-2.52-0.545-3.906-1.174l-0.717-0.323l0.655-0.441c0.333-0.219,0.758-0.421,1.224-0.578
		c-1.986-0.599-3.787-1.436-5.32-2.655l-0.618-0.489l0.744-0.264c0.846-0.304,1.691-0.5,2.552-0.61
		c-1.13-0.308-2.245-0.67-3.335-1.11c-2.742-1.109-5.054-2.952-7.363-4.795c-1.607-1.286-3.065-2.382-4.799-3.482
		c2.06,0.072,3.872-0.012,5.934-0.169c2.956-0.231,5.916-0.46,8.804,0.219c1.073,0.25,2.119,0.574,3.147,0.949
		c-0.57-0.539-1.093-1.129-1.565-1.789l-0.46-0.639l0.786-0.053c2.323-0.152,4.644,0.356,6.998,1.239l-0.068-0.087
		c-0.429-0.548-0.786-1.109-1.067-1.689l-0.396-0.813l0.882,0.195c1.438,0.32,2.796,0.773,4.091,1.321l-0.048-0.065
		c-0.475-0.626-0.84-1.269-1.104-1.931l-0.352-0.877l0.896,0.303c1.452,0.489,2.831,1.167,4.183,1.918
		c-0.623-0.767-1.148-1.602-1.526-2.542l-0.33-0.816l0.848,0.232c0.868,0.238,1.728,0.629,2.582,1.119
		c-0.343-0.496-0.627-1.008-0.835-1.54l-0.298-0.751l0.793,0.163c0.871,0.183,1.663,0.5,2.404,0.897
		c-0.247-0.463-0.463-0.989-0.629-1.596l-0.196-0.724l0.725,0.186c0.587,0.15,1.141,0.395,1.671,0.712
		c-0.177-0.386-0.323-0.796-0.438-1.25l-0.173-0.686l0.688,0.153c0.578,0.127,1.09,0.333,1.567,0.594
		c-0.193-0.421-0.354-0.874-0.474-1.37l-0.173-0.718l0.711,0.192c0.711,0.196,1.31,0.489,1.827,0.852
		c-0.149-0.587-0.231-1.198-0.265-1.824l-0.048-0.943l0.75,0.575c0.23,0.179,0.47,0.362,0.714,0.558
		c-0.144-0.499-0.166-1.011-0.031-1.54l0.117-0.441l0.434,0.134c0.418,0.127,0.77,0.317,1.079,0.545
		c-0.045-0.274-0.071-0.574-0.074-0.907l-0.007-0.597l0.571,0.176c0.45,0.137,0.844,0.382,1.203,0.688
		c-0.106-0.459-0.177-0.956-0.18-1.51l-0.006-0.721l0.644,0.33c0.322,0.17,0.606,0.355,0.857,0.558
		c-0.082-0.502-0.099-1.027-0.036-1.588l0.078-0.662l0.575,0.332c0.486,0.278,0.902,0.621,1.278,0.999
		c-0.135-0.678-0.199-1.36-0.213-2.048l-0.015-0.865l0.703,0.499c0.513,0.366,0.943,0.767,1.325,1.191
		c-0.199-0.829-0.301-1.697-0.251-2.623l0.043-0.718l0.615,0.365c0.758,0.447,1.399,1.021,1.967,1.677l-0.009-0.039
		c-0.267-1.325-0.343-2.698-0.264-4.072l0.048-0.822l0.653,0.499c0.639,0.49,1.167,1.047,1.611,1.654
		c-0.017-0.633-0.013-1.263,0.022-1.889c0.066-1.22,0.244-2.424,0.601-3.595l0.205-0.679l0.514,0.49
		c0.59,0.564,1.088,1.295,1.513,2.153c-0.163-2.578,0.036-5.009,0.895-7.233l0.284-0.734l0.473,0.629
		c0.485,0.649,0.896,1.322,1.236,2.03c-0.049-1.093-0.046-2.189,0.036-3.286c0.216-2.959,1.317-5.719,2.416-8.476
		c0.686-1.709,1.264-3.43,1.93-5.135c0.668,1.7,1.229,3.432,1.896,5.145c1.068,2.756,2.139,5.513,2.381,8.463
		c0.092,1.17,0.105,2.342,0.059,3.51c0.365-0.786,0.806-1.534,1.345-2.251l0.473-0.629l0.284,0.734
		c0.764,1.974,1.005,4.108,0.936,6.362c0.313-0.549,0.65-1.018,0.996-1.332l0.597-0.542l0.126,0.796
		c0.19,1.217,0.267,2.47,0.275,3.72c0.003,0.454,0,0.903-0.014,1.354c0.451-0.842,1.002-1.579,1.68-2.16l0.716-0.61l0.003,0.942
		c0.006,1.113-0.062,2.251-0.188,3.396c0.329-0.493,0.72-0.985,1.203-1.481l0.672-0.685l0.078,0.956
		c0.095,1.178,0.027,2.33-0.138,3.465c-0.031,0.222-0.067,0.447-0.109,0.669c0.502-0.688,1.076-1.357,1.722-2.01l0.691-0.701
		l0.053,0.985c0.039,0.721-0.022,1.393-0.149,2.029c0.342-0.368,0.714-0.698,1.115-0.989l0.721-0.521l-0.029,0.891
		c-0.03,0.842-0.111,1.647-0.264,2.405c0.486-0.467,1.018-0.885,1.549-1.178l0.614-0.339l0.036,0.698
		c0.028,0.61-0.03,1.204-0.131,1.765c0.303-0.261,0.659-0.496,1.083-0.691l0.585-0.268l0.031,0.643
		c0.03,0.545-0.017,1.073-0.121,1.582c0.359-0.29,0.734-0.531,1.097-0.718l0.545-0.28l0.089,0.607
		c0.104,0.737-0.008,1.475-0.19,2.196c0.075-0.059,0.151-0.118,0.229-0.173c0.463-0.336,0.958-0.624,1.461-0.816l0.658-0.248
		l-0.067,0.698c-0.063,0.607-0.245,1.21-0.476,1.807c0.048-0.033,0.097-0.065,0.149-0.098c0.522-0.333,1.093-0.636,1.69-0.871
		l0.691-0.275l-0.099,0.737c-0.062,0.458-0.196,0.888-0.365,1.289c0.441-0.231,0.913-0.411,1.422-0.532l0.663-0.153l-0.135,0.666
		c-0.084,0.424-0.217,0.835-0.394,1.24c0.545-0.281,1.115-0.48,1.723-0.581l0.609-0.102l-0.11,0.61
		c-0.095,0.525-0.255,1.019-0.463,1.485c0.672-0.415,1.37-0.763,2.051-1.031l0.741-0.293l-0.15,0.783
		c-0.136,0.691-0.381,1.298-0.694,1.84c0.966-0.542,1.938-0.959,2.842-1.175l0.728-0.173l-0.21,0.722
		c-0.23,0.792-0.662,1.527-1.203,2.219c1.158-0.624,2.347-1.116,3.557-1.475l0.945-0.277l-0.428,0.888
		c-0.322,0.669-0.711,1.301-1.151,1.905c0.271-0.134,0.545-0.264,0.822-0.385c1.021-0.447,2.076-0.803,3.172-1.047l0.725-0.163
		l-0.21,0.711c-0.202,0.676-0.506,1.292-0.913,1.856c2.177-0.764,4.326-1.188,6.473-1.047l0.786,0.053l-0.46,0.636
		c-0.473,0.663-0.995,1.252-1.565,1.792c1.028-0.376,2.074-0.699,3.148-0.949c2.887-0.68,5.842-0.45,8.802-0.222
		c1.837,0.144,3.625,0.196,5.456,0.284c-1.379,1.178-2.891,2.228-4.32,3.371c-2.31,1.843-4.621,3.687-7.363,4.796
		c-1.09,0.441-2.206,0.803-3.335,1.109c0.86,0.11,1.706,0.307,2.552,0.61l0.744,0.264l-0.618,0.489
		c-1.835,1.458-4.048,2.368-6.512,2.982c0.229,0.055,0.454,0.107,0.669,0.163l0,0c0.797,0.203,1.475,0.417,1.994,0.649l0.938,0.417
		l-0.955,0.385c-1.501,0.607-3.079,0.969-4.701,1.218c1.04,0.186,1.974,0.479,2.74,0.942l0.849,0.513l-0.947,0.279
		c-1.373,0.412-2.57,0.657-3.666,0.809c0.738,0.229,1.446,0.559,2.098,1.036l0.76,0.554l-0.913,0.222
		c-1.063,0.258-2.124,0.427-3.184,0.525c0.711,0.25,1.366,0.578,1.947,1.008l0.75,0.554l-0.907,0.219
		c-0.832,0.203-1.653,0.314-2.47,0.366c0.66,0.32,1.236,0.738,1.688,1.314l0.405,0.517l-0.635,0.175
		c-0.576,0.16-1.166,0.235-1.765,0.252c0.45,0.284,0.784,0.607,0.944,0.984l0.179,0.424l-0.435,0.157
		c-0.463,0.171-0.952,0.272-1.461,0.32c0.518,0.313,0.959,0.688,1.27,1.168l0.29,0.453l-0.506,0.193
		c-0.564,0.211-1.178,0.326-1.823,0.352c0.443,0.314,0.802,0.668,1.06,1.073l0.294,0.463l-0.519,0.183
		c-0.535,0.186-1.104,0.297-1.706,0.333l0.02,0.012c0.597,0.408,1.128,0.888,1.478,1.452l0.318,0.516l-0.59,0.139
		c-0.646,0.151-1.338,0.196-2.02,0.179c0.503,0.396,0.898,0.859,1.162,1.407l0.248,0.522l-0.574,0.094
		c-0.396,0.066-0.803,0.089-1.221,0.079c0.343,0.258,0.648,0.548,0.907,0.884l0.382,0.503l-0.604,0.183
		c-0.626,0.188-1.242,0.225-1.852,0.157l0.051,0.048c0.559,0.522,1.039,1.08,1.388,1.706l0.329,0.595l-0.678,0.054
		c-0.5,0.039-0.999,0.05-1.499,0.02c0.67,0.455,1.253,0.95,1.701,1.517l0.557,0.712l-0.904-0.007
		c-0.621-0.003-1.245-0.068-1.862-0.189c0.696,0.607,1.312,1.286,1.817,2.065l0.45,0.694l-0.829-0.022
		c-0.742-0.02-1.474-0.146-2.188-0.358c0.936,0.88,1.759,1.827,2.438,2.864l0.561,0.854l-1.007-0.186
		c-0.761-0.143-1.502-0.332-2.223-0.564c0.271,0.314,0.534,0.634,0.793,0.96c0.907,1.155,1.657,2.411,2.492,3.615
		c-1.504-0.35-2.829-0.721-4.265-1.339c1.707,2.082,3.488,4.587,4.773,6.995c-1.191-0.332-1.934-0.681-3.037-1.259
		c0.803,0.916,1.556,1.876,2.238,2.896c1.646,2.466,2.473,5.318,3.298,8.169c0.607,2.101,1.149,3.784,2.046,5.769
		c-1.689-1.35-3.197-2.311-5.063-3.426c-2.539-1.514-5.08-3.031-7.077-5.211c-0.797-0.866-1.527-1.784-2.213-2.733
		c0.199,0.845,0.312,1.707,0.328,2.607l0.012,0.786l-0.672-0.404c-2.091-1.256-3.772-3.102-5.253-5.302
		c0.008,0.144,0.008,0.287,0.008,0.427c-0.011,0.761-0.109,1.456-0.281,2.098l-0.225,0.846l-0.539-0.688
		c-1.099-1.398-2.068-2.885-2.904-4.463c-0.034-0.065-0.071-0.135-0.107-0.203c0.187,1.546,0.231,3.012-0.067,4.541
		c-1.129-1.043-1.817-2.279-2.461-3.675c0.007,0.832-0.064,1.604-0.219,2.315l-0.208,0.95l-0.575-0.784
		c-0.675-0.922-1.248-1.914-1.695-2.992c-0.105,0.685-0.283,1.374-0.55,2.062l-0.286,0.75l-0.473-0.649
		c-0.531-0.734-0.927-1.546-1.208-2.424c-0.152,0.693-0.365,1.361-0.651,2l-0.301,0.663l-0.446-0.577
		c-0.366-0.48-0.675-0.988-0.907-1.544c-0.157,0.48-0.353,0.933-0.582,1.357l-0.38,0.696l-0.387-0.696
		c-0.208-0.377-0.407-0.79-0.573-1.249c-0.127,0.385-0.29,0.756-0.489,1.119l-0.32,0.584l-0.407-0.525
		c-0.255-0.326-0.5-0.669-0.702-1.101c-0.146,0.51-0.354,0.989-0.665,1.43l-0.369,0.525l-0.352-0.535
		c-0.241-0.37-0.535-0.826-0.806-1.458c-0.078-0.188-0.154-0.39-0.228-0.607c-0.011,0.026-0.017,0.051-0.027,0.077
		c-0.222,0.626-0.518,1.182-0.939,1.615l-0.349,0.362l-0.311-0.399c-0.34-0.436-0.59-0.936-0.747-1.493l-0.017,0.039
		c-0.279,0.661-0.6,1.268-0.965,1.821l-0.451,0.684l-0.315-0.759c-0.199-0.483-0.356-0.995-0.457-1.547
		c-0.271,0.517-0.604,0.997-1.012,1.433l-0.486,0.525l-0.244-0.672c-0.154-0.43-0.278-0.884-0.359-1.371l-0.022,0.05
		c-0.368,0.805-0.826,1.431-1.419,1.86l-0.517,0.365l-0.163-0.611c-0.136-0.521-0.244-1.043-0.313-1.571
		c-0.349,0.871-0.786,1.65-1.43,2.326l-0.596,0.629l-0.151-0.854c-0.127-0.735-0.191-1.469-0.199-2.219
		c-0.051,0.11-0.101,0.219-0.152,0.323c-0.548,1.119-1.168,1.961-1.915,2.518l-0.678,0.51L123.256,130
		c-0.01-0.522,0.01-1.073,0.068-1.657c-0.666,1.265-1.247,2.155-2.215,3.184c-0.105-0.841-0.219-1.661-0.235-2.512
		c-0.604,0.959-1.314,1.821-2.153,2.6l-0.718,0.666l-0.017-0.975C117.967,130.183,118.026,128.946,118.223,127.689z
		 M121.226,122.045c-0.394,0.803-0.789,1.596-1.19,2.373c-0.434,1.007-0.723,2.074-0.906,3.138c-0.156,0.91-0.235,1.813-0.261,2.672
		c0.81-0.896,1.468-1.899,2.016-3.028c0.643-1.324,1.204-3.135,1.53-4.59C122.016,122.427,121.618,122.241,121.226,122.045z
		 M114.104,127.798c-0.551,1.034-0.981,2.035-1.285,3.051c-0.219,0.739-0.365,1.49-0.438,2.259c1.664-1.167,3.051-2.762,4.304-4.629
		c1.36-2.029,2.557-4.377,3.765-6.831c-0.708-0.375-1.399-0.77-2.082-1.191c-0.877,1.399-1.696,2.841-2.515,4.279
		c-0.584,1.022-1.165,2.047-1.766,3.051L114.104,127.798z M114.591,117.788c-1.155,1.158-2.358,2.265-3.56,3.37
		c-2.744,2.519-5.484,5.039-7.523,8.084c-1.573,2.356-2.378,5.142-3.184,7.928c-0.288,0.995-0.575,1.986-0.898,2.966
		c0.862-0.559,1.747-1.088,2.63-1.613c2.483-1.483,4.966-2.964,6.882-5.053c2.481-2.703,4.318-5.934,6.155-9.164
		c0.829-1.455,1.654-2.91,2.539-4.315C116.581,119.309,115.563,118.57,114.591,117.788z"/>
	<path fill-rule="evenodd" clip-rule="evenodd" fill="#004A74" d="M123.895,68.3l0.154-0.477l0.238-0.463l0.318-0.441l0.393-0.424
		l0.456-0.397l0.52-0.372l0.57-0.346l0.62-0.316l0.652-0.284l0.686-0.249l0.705-0.215l0.725-0.18l0.725-0.14l0.728-0.102
		l0.717-0.058l0.699-0.02l0.674,0.023l0.641,0.068l0.599,0.111l0.553,0.156l0.492,0.199l0.431,0.242l0.355,0.281l0.284,0.322
		l0.208,0.362l0.132,0.415l0.045,0.483v5.664l-0.304-0.014h-0.342l-0.719,0.045l-0.75,0.092l-0.779,0.133
		c-0.398,0.082-0.792,0.17-1.188,0.272c-0.392,0.101-0.784,0.214-1.172,0.335c-0.379,0.124-0.75,0.255-1.121,0.393l-0.696,0.284
		c-0.32,0.14-0.633,0.287-0.941,0.447c-0.525,0.284-1.062,0.587-1.466,1.034l-3.155-4.138l-0.362-0.599l-0.238-0.572l-0.127-0.541
		l-0.025-0.519L123.895,68.3z M114.017,79.835l-0.078-0.512v-0.545l0.064-0.572l0.138-0.59l0.202-0.607l0.258-0.616l0.315-0.621
		l0.362-0.613l0.405-0.606l0.446-0.587l0.48-0.567l0.506-0.542l0.528-0.509l0.541-0.469l0.559-0.429l0.561-0.375l0.556-0.323
		l0.551-0.264l0.539-0.199l0.515-0.126l0.489-0.056l0.457,0.017l0.413,0.094l0.386,0.173l0.35,0.258l0.318,0.362l3.329,4.58
		l-0.251,0.174l-0.271,0.205l-0.271,0.225l-0.531,0.5l-0.53,0.554l-0.512,0.598c-0.255,0.315-0.499,0.632-0.736,0.953
		c-0.235,0.326-0.463,0.655-0.688,0.989c-0.206,0.323-0.415,0.649-0.614,0.978c-0.18,0.306-0.359,0.616-0.531,0.93
		c-0.144,0.281-0.287,0.562-0.424,0.845l-0.222,0.495c-0.088,0.222-0.18,0.447-0.239,0.679l-5.054-1.598l-0.648-0.272l-0.528-0.323
		l-0.425-0.362l-0.323-0.408l-0.233-0.439L114.017,79.835z M113.367,95.75l-0.404-0.297l-0.365-0.369l-0.323-0.438l-0.28-0.501
		l-0.238-0.562l-0.193-0.606l-0.152-0.652l-0.107-0.685l-0.069-0.708l-0.025-0.731l0.013-0.738l0.055-0.741l0.092-0.737l0.127-0.722
		l0.163-0.697l0.199-0.676l0.235-0.632l0.26-0.587l0.292-0.539l0.319-0.476l0.338-0.408l0.362-0.333l0.379-0.253l0.396-0.171
		l0.408-0.084l0.433,0.003l0.478,0.109l5.38,1.748l-0.104,0.284l-0.101,0.326l-0.099,0.343l-0.163,0.721l-0.131,0.767l-0.094,0.792
		c-0.039,0.407-0.069,0.812-0.089,1.22l-0.02,0.812l0.01,0.797c0.017,0.382,0.04,0.759,0.071,1.141l0.078,0.705l0.112,0.643
		l0.14,0.574l0.077,0.258l0.093,0.236l0.098,0.214l0.065,0.118l-4.903,1.722l-0.686,0.16l-0.617,0.05l-0.557-0.047l-0.5-0.133
		L113.367,95.75z M121.787,108.708h-0.502l-0.512-0.084l-0.52-0.163l-0.522-0.242l-0.518-0.314l-0.517-0.379l-0.505-0.437
		l-0.492-0.489l-0.47-0.536l-0.451-0.573l-0.425-0.607l-0.391-0.629l-0.359-0.651l-0.318-0.661l-0.277-0.66l-0.235-0.663
		l-0.187-0.649l-0.134-0.629l-0.077-0.607l-0.024-0.571l0.036-0.528l0.099-0.483l0.157-0.427l0.219-0.368l0.279-0.314l0.353-0.25
		l0.447-0.193l5.383-1.748l0.081,0.29l0.109,0.326l0.264,0.668l0.318,0.688l0.365,0.702l0.409,0.694
		c0.215,0.351,0.439,0.691,0.669,1.028c0.228,0.329,0.467,0.652,0.711,0.972l0.483,0.601c0.23,0.273,0.473,0.537,0.72,0.803
		l0.467,0.456l0.448,0.382l0.217,0.16l0.21,0.14l0.205,0.113l0.127,0.056l-2.958,4.278l-0.461,0.531l-0.47,0.404l-0.477,0.29
		l-0.486,0.183L121.787,108.708z M136.214,114.246l-0.404,0.296l-0.462,0.232l-0.52,0.169l-0.564,0.112l-0.604,0.054l-0.639-0.003
		l-0.666-0.059l-0.686-0.104l-0.698-0.157l-0.697-0.203l-0.699-0.241l-0.688-0.276l-0.672-0.317l-0.646-0.343l-0.613-0.375
		l-0.581-0.396l-0.528-0.418l-0.48-0.43l-0.421-0.441l-0.354-0.45l-0.281-0.453l-0.205-0.448l-0.125-0.437l-0.038-0.427l0.046-0.418
		l0.137-0.411l0.248-0.418l3.327-4.58l0.238,0.186l0.277,0.203l0.293,0.195l0.637,0.379l0.688,0.359l0.725,0.34l0.75,0.31
		c0.382,0.149,0.764,0.284,1.149,0.418c0.377,0.124,0.756,0.234,1.138,0.343l0.73,0.183c0.34,0.071,0.68,0.133,1.022,0.191
		c0.593,0.076,1.203,0.146,1.793,0.023l0.121,5.197l-0.06,0.705l-0.14,0.601l-0.218,0.515l-0.284,0.435L136.214,114.246z
		 M151.141,110.242l-0.153,0.476l-0.242,0.46l-0.316,0.444l-0.392,0.421l-0.457,0.397l-0.518,0.375l-0.575,0.346l-0.616,0.317
		l-0.651,0.281l-0.686,0.251l-0.708,0.216l-0.722,0.175l-0.728,0.144l-0.725,0.101l-0.717,0.059l-0.702,0.02l-0.672-0.026
		l-0.643-0.065l-0.602-0.111l-0.551-0.156l-0.492-0.199l-0.427-0.242l-0.359-0.28l-0.284-0.323l-0.208-0.362l-0.128-0.418
		l-0.048-0.483v-5.659l0.306,0.012l0.34-0.003l0.717-0.042l0.755-0.092l0.775-0.133c0.402-0.082,0.796-0.174,1.188-0.271
		c0.394-0.104,0.786-0.218,1.175-0.335c0.374-0.124,0.75-0.255,1.118-0.393c0.346-0.136,0.688-0.279,1.028-0.43l0.612-0.3
		c0.525-0.284,1.057-0.587,1.466-1.034l3.151,4.137l0.366,0.596l0.236,0.575l0.129,0.541l0.025,0.519L151.141,110.242z
		 M160.862,98.225l0.156,0.477l0.076,0.515l0.003,0.545l-0.068,0.572l-0.134,0.59l-0.202,0.607l-0.262,0.616l-0.313,0.617
		l-0.362,0.616l-0.409,0.604l-0.442,0.59l-0.479,0.567l-0.506,0.542l-0.528,0.509l-0.545,0.471l-0.556,0.424l-0.56,0.377
		l-0.559,0.323l-0.551,0.261l-0.536,0.199l-0.515,0.129l-0.489,0.056l-0.457-0.017l-0.418-0.094l-0.383-0.173l-0.345-0.258
		l-0.326-0.361l-3.324-4.581l0.251-0.169l0.277-0.202l0.554-0.458l0.559-0.515l0.548-0.569c0.275-0.296,0.542-0.603,0.804-0.917
		c0.256-0.317,0.505-0.638,0.75-0.961c0.23-0.323,0.456-0.646,0.675-0.977c0.202-0.313,0.396-0.629,0.581-0.95l0.316-0.602
		c0.257-0.539,0.512-1.101,0.577-1.701l4.982,1.491l0.649,0.275l0.528,0.32l0.421,0.365l0.326,0.405L160.862,98.225z
		 M161.668,82.791l0.404,0.297l0.365,0.365l0.32,0.44l0.284,0.503l0.235,0.56l0.194,0.607l0.154,0.653l0.107,0.684l0.069,0.708
		l0.025,0.732l-0.014,0.736l-0.055,0.741l-0.092,0.737l-0.127,0.722l-0.166,0.697l-0.199,0.673l-0.229,0.632l-0.264,0.59
		l-0.29,0.536l-0.317,0.479l-0.342,0.405l-0.362,0.333l-0.378,0.256l-0.396,0.168l-0.41,0.087l-0.431-0.006l-0.477-0.104
		l-5.383-1.75l0.104-0.287l0.104-0.323l0.099-0.343l0.162-0.721l0.127-0.767l0.099-0.792c0.039-0.407,0.064-0.812,0.089-1.22
		c0.012-0.407,0.02-0.809,0.015-1.213c-0.006-0.393-0.022-0.78-0.045-1.168l-0.067-0.728l-0.099-0.675
		c-0.107-0.587-0.232-1.191-0.528-1.713l4.906-1.722l0.682-0.16l0.618-0.05l0.557,0.047l0.5,0.133L161.668,82.791z M153.248,69.829
		h0.503l0.512,0.085l0.515,0.167l0.522,0.241l0.522,0.313l0.516,0.379l0.506,0.437l0.492,0.49l0.47,0.535l0.449,0.573l0.425,0.604
		l0.392,0.634l0.355,0.646l0.323,0.658l0.277,0.666l0.235,0.66l0.183,0.649l0.136,0.632l0.079,0.604l0.022,0.574l-0.035,0.528
		l-0.098,0.483l-0.157,0.427l-0.219,0.37l-0.284,0.313l-0.349,0.252l-0.446,0.192l-5.383,1.75l-0.082-0.292l-0.111-0.326
		l-0.262-0.672l-0.319-0.686l-0.365-0.702l-0.408-0.694c-0.214-0.349-0.44-0.691-0.668-1.028c-0.229-0.329-0.467-0.652-0.708-0.972
		c-0.239-0.301-0.48-0.59-0.728-0.882l-0.48-0.521l-0.467-0.458c-0.371-0.329-0.75-0.649-1.206-0.854l2.959-4.278l0.457-0.531
		l0.47-0.405l0.48-0.287l0.481-0.186L153.248,69.829z M138.817,64.293l0.407-0.294l0.464-0.231l0.52-0.173l0.562-0.111l0.606-0.052
		l0.639,0.003l0.666,0.055l0.685,0.108l0.694,0.157l0.702,0.199l0.699,0.242l0.688,0.281l0.668,0.316l0.649,0.343l0.613,0.372
		l0.578,0.398l0.531,0.414l0.479,0.434l0.421,0.441l0.353,0.45l0.283,0.454l0.205,0.442l0.124,0.441l0.039,0.427l-0.045,0.415
		l-0.138,0.411l-0.244,0.421l-3.327,4.577l-0.241-0.186l-0.278-0.202l-0.294-0.191l-0.636-0.379l-0.688-0.362l-0.725-0.337
		c-0.374-0.158-0.753-0.313-1.132-0.459c-0.382-0.137-0.767-0.271-1.151-0.392c-0.371-0.113-0.747-0.219-1.122-0.315l-0.715-0.16
		c-0.329-0.062-0.655-0.118-0.989-0.16l-0.587-0.045h-0.271l-0.25,0.009l-0.235,0.026l-0.135,0.027l-0.12-5.197l0.062-0.702
		l0.141-0.604l0.215-0.512l0.287-0.434L138.817,64.293z M137.52,73.582c8.636,0,15.684,7.046,15.684,15.689
		c0,8.639-7.048,15.682-15.684,15.682c-8.639,0-15.684-7.043-15.684-15.682C121.836,80.628,128.881,73.582,137.52,73.582z
		 M137.52,61.477c15.302,0,27.783,12.487,27.783,27.794s-12.481,27.79-27.783,27.79c-15.308,0-27.787-12.482-27.787-27.79
		S122.212,61.477,137.52,61.477z"/>
	<path fill="#004A74" d="M117.827,76.063l1.536-2.465l0.346-0.556l0.509,0.408c0.34,0.271,0.67,0.525,0.996,0.774
		c0.604,0.458,1.187,0.906,1.798,1.451l0.016,0.017l0.013,0.013l0.014,0.012c0.293,0.3,0.402,0.953,0.326,1.609
		c-0.072,0.601-0.283,1.252-0.637,1.646h-0.003c-0.025,0.03-0.049,0.056-0.068,0.073c-0.427,0.421-0.94,0.862-1.533,1.146
		c-0.649,0.31-1.371,0.43-2.146,0.146l0.394-1.087c0.438,0.157,0.865,0.082,1.253-0.104c0.447-0.216,0.865-0.578,1.222-0.927
		l0.02-0.02l0,0c0.183-0.205,0.303-0.609,0.349-1.008c0.036-0.326,0.042-0.593,0.006-0.655c-0.59-0.525-1.148-0.953-1.723-1.394
		c-0.166-0.126-0.332-0.255-0.505-0.388l-1.194,1.918L117.827,76.063z"/>
	<path fill="#004A74" d="M117.925,92.865c-1.129,0.101-2.293,0.207-3.433,0.105l-0.357-0.033l-0.132-0.333
		c-0.28-0.714-0.473-1.412-0.551-2.169c-0.081-0.75-0.045-1.546,0.124-2.444c0.124-0.652,0.446-1.265,0.885-1.709
		c0.446-0.454,1.017-0.741,1.63-0.741c0.614,0,1.233,0.337,1.713,0.792c0.517,0.497,0.888,1.163,0.927,1.727
		c0.06,0.899,0.099,1.84,0.141,2.779c0.02,0.45,0.039,0.901,0.063,1.384l0.025,0.554l-0.558,0.048
		C117.588,92.896,118.039,92.856,117.925,92.865 M114.956,91.842c0.91,0.042,1.862-0.04,2.792-0.121
		c-0.009-0.274-0.022-0.552-0.034-0.832c-0.04-0.907-0.079-1.814-0.141-2.758c-0.017-0.276-0.249-0.652-0.572-0.961
		c-0.284-0.269-0.616-0.466-0.91-0.466c-0.287,0-0.57,0.152-0.805,0.391c-0.28,0.287-0.49,0.686-0.572,1.109
		c-0.149,0.787-0.18,1.472-0.11,2.113C114.66,90.836,114.78,91.336,114.956,91.842z"/>
	<path fill="#004A74" d="M127.935,68.775c-0.163,0.274-0.262,0.584-0.268,0.924c0.789-0.438,1.602-0.817,2.447-1.132
		c0.88-0.333,1.795-0.595,2.736-0.777c-0.191-0.273-0.453-0.453-0.764-0.548c-0.512-0.16-1.172-0.118-1.914,0.084
		c-0.196,0.053-0.382,0.112-0.556,0.173C128.909,67.755,128.28,68.194,127.935,68.775 M127.866,72.73
		c-0.095-0.144-0.219-0.317-0.343-0.491c-0.319-0.439-0.646-0.886-0.831-1.436c-0.337-0.992-0.193-1.885,0.25-2.622
		c0.486-0.82,1.341-1.433,2.287-1.772c0.232-0.084,0.446-0.153,0.64-0.205c0.945-0.258,1.827-0.297,2.558-0.069
		c0.8,0.245,1.406,0.786,1.725,1.676c0.037,0.106,0.066,0.193,0.087,0.272c0.143,0.528,0.188,1.122,0.23,1.689
		c0.017,0.242,0.036,0.48,0.059,0.686l-1.151,0.134c-0.025-0.242-0.045-0.483-0.064-0.734c-0.023-0.32-0.051-0.653-0.093-0.96
		c-0.938,0.174-1.84,0.427-2.703,0.75c-0.876,0.331-1.72,0.731-2.533,1.202c0.135,0.237,0.308,0.476,0.48,0.711
		c0.12,0.169,0.241,0.335,0.372,0.535L127.866,72.73z"/>
	<path fill="#004A74" d="M148.119,68.174c0.111,0.797,0.084,1.534-0.082,2.236c-0.166,0.702-0.473,1.36-0.913,2.006l-0.958-0.652
		c0.275-0.405,0.488-0.813,0.632-1.236c-0.783-0.455-1.592-0.787-2.41-1.019c-0.807-0.228-1.626-0.362-2.444-0.417
		c-0.095,0.404-0.124,0.818-0.092,1.239l-1.155,0.092c-0.059-0.744,0.037-1.475,0.295-2.19c0.254-0.701,0.666-1.38,1.242-2.042
		l0.871,0.763c-0.293,0.333-0.531,0.669-0.72,1.012c0.775,0.072,1.552,0.208,2.315,0.427c0.786,0.222,1.563,0.528,2.323,0.938
		c0.013-0.32-0.004-0.646-0.054-0.993L148.119,68.174z"/>
	<path fill="#004A74" d="M150.579,75.675c0.16-0.714,0.531-1.383,1.037-1.895c0.503-0.51,1.143-0.873,1.844-0.989
		c0.601-0.098,1.188,0.127,1.668,0.495c0.531,0.412,0.941,1.025,1.057,1.547c0.072,0.329,0.006,0.619-0.112,0.891
		c0.269,0.031,0.533,0.093,0.738,0.191c0.033,0.017,0.068,0.036,0.107,0.059c0.519,0.287,0.861,0.753,1.014,1.275
		c0.154,0.516,0.118,1.09-0.126,1.596c-0.017,0.033-0.036,0.069-0.06,0.111c-0.335,0.6-0.913,1.07-1.565,1.377
		c-0.688,0.323-1.478,0.469-2.163,0.397l0.118-1.152c0.486,0.05,1.054-0.057,1.557-0.293c0.446-0.208,0.831-0.516,1.043-0.891
		c0.007-0.013,0.017-0.033,0.027-0.056c0.116-0.238,0.133-0.515,0.062-0.764c-0.072-0.242-0.232-0.459-0.467-0.59
		c-0.014-0.006-0.03-0.017-0.053-0.026c-0.095-0.045-0.25-0.075-0.424-0.095c-0.245-0.023-0.503-0.017-0.691,0.007l-1.012,0.119
		l0.414-0.933c0.059-0.133,0.137-0.273,0.219-0.414c0.127-0.222,0.261-0.46,0.238-0.568c-0.059-0.277-0.304-0.623-0.629-0.874
		c-0.245-0.19-0.522-0.311-0.771-0.271c-0.451,0.079-0.871,0.317-1.207,0.66c-0.359,0.362-0.621,0.832-0.73,1.334L150.579,75.675z"
		/>
	<path fill="#004A74" d="M159.339,86.833c-0.134-0.078-0.287-0.134-0.45-0.173c0.079,0.873,0.102,1.743,0.071,2.614
		c-0.028,0.888-0.107,1.771-0.23,2.649c0.292-0.003,0.551-0.053,0.747-0.174c0.396-0.241,0.678-0.577,0.871-0.966
		c0.228-0.467,0.332-1.015,0.346-1.588c0.009-0.458-0.121-0.914-0.349-1.321C160.103,87.454,159.75,87.088,159.339,86.833
		 M156.341,85.704l0.127-0.022c1.04-0.206,2.414-0.48,3.472,0.163c0.58,0.356,1.073,0.865,1.408,1.458
		c0.331,0.581,0.52,1.244,0.503,1.916c-0.02,0.736-0.157,1.452-0.466,2.079c-0.284,0.58-0.708,1.076-1.305,1.441
		c-0.96,0.587-2.307,0.284-3.374,0.042c-0.084-0.017-0.166-0.037-0.343-0.076l0.239-1.132c0.045,0.01,0.197,0.043,0.354,0.078
		c0.199,0.047,0.407,0.092,0.62,0.134c0.121-0.848,0.199-1.7,0.229-2.548c0.025-0.857,0-1.722-0.082-2.593
		c-0.359,0.042-0.714,0.113-1.034,0.175l-0.123,0.024L156.341,85.704z"/>
	<path fill="#004A74" d="M155.347,100.026c-0.438-0.234-0.873-0.47-1.354-0.74c-0.121,0.183-0.249,0.371-0.379,0.564
		c-0.365,0.545-0.772,1.144-1.081,1.739c-0.528,1.012-0.756,2.015,0.232,2.528c1.526,0.796,3.024-1.823,3.896-3.374
		C156.21,100.494,155.776,100.262,155.347,100.026 M154.077,98.003c0.639,0.367,1.229,0.682,1.817,1.002
		c0.576,0.313,1.154,0.626,1.843,1.014l0.506,0.292l-0.291,0.501l-0.245,0.435c-1.063,1.896-2.933,5.226-5.478,3.902
		c-1.823-0.95-1.54-2.531-0.724-4.098c0.336-0.646,0.763-1.279,1.145-1.846c0.255-0.379,0.493-0.728,0.64-0.986l0.287-0.5
		L154.077,98.003z"/>
	<path fill="#004A74" d="M142.034,110.288c0.056,0.127,0.118,0.248,0.19,0.359c0.446,0.678,1.35,1.021,3.115,0.45
		c0.604-0.193,1.048-0.441,1.36-0.722c0.346-0.306,0.528-0.655,0.593-1.017c0.047-0.255,0.039-0.525-0.012-0.792
		c-0.927,0.486-1.843,0.863-2.738,1.147C143.688,109.984,142.851,110.17,142.034,110.288 M141.711,107.776
		c-0.012,0.427-0.009,0.91,0.047,1.383c0.79-0.107,1.604-0.284,2.437-0.548c0.874-0.278,1.775-0.652,2.686-1.143
		c-0.19-0.354-0.425-0.681-0.666-0.948l0.868-0.774c0.479,0.539,0.946,1.272,1.2,2.062c0.183,0.567,0.255,1.168,0.15,1.755
		c-0.111,0.607-0.404,1.185-0.96,1.68c-0.427,0.382-1.008,0.708-1.781,0.956c-2.401,0.774-3.719,0.18-4.437-0.917
		c-0.668-1.02-0.73-2.447-0.701-3.54L141.711,107.776z"/>
	<path fill="#004A74" d="M128.688,110.085c0.072,0.082,0.154,0.166,0.238,0.248c0.594,0.578,1.247,0.921,1.894,0.979
		c0.621,0.058,1.259-0.151,1.846-0.676c0.056-0.051,0.118-0.11,0.183-0.18c0.056-0.056,0.102-0.118,0.144-0.183
		c0.153-0.244,0.199-0.551,0.127-0.877c-0.082-0.373-0.307-0.77-0.694-1.148c-0.199-0.193-0.434-0.379-0.715-0.551
		c-0.831-0.519-1.481-0.691-2.042-0.559c-0.443,0.102-0.871,0.396-1.325,0.859c0.373,0.245,0.738,0.453,1.109,0.626
		c0.539,0.251,1.099,0.43,1.726,0.535l-0.183,1.143c-0.747-0.125-1.405-0.333-2.032-0.626c-0.62-0.288-1.21-0.657-1.828-1.101
		l-0.505-0.362l0.396-0.479c0.772-0.93,1.52-1.524,2.379-1.727c0.877-0.202,1.807,0.01,2.916,0.705
		c0.352,0.219,0.652,0.457,0.91,0.705c0.562,0.548,0.896,1.152,1.025,1.736c0.133,0.63,0.034,1.233-0.278,1.736
		c-0.084,0.133-0.183,0.259-0.3,0.377c-0.073,0.076-0.154,0.154-0.242,0.232c-0.842,0.753-1.781,1.054-2.722,0.969
		c-0.916-0.086-1.813-0.542-2.593-1.303c-0.094-0.09-0.192-0.195-0.293-0.309L128.688,110.085z"/>
	<path fill="#004A74" d="M118.672,100.147c-0.219,0.252-0.379,0.51-0.477,0.777l0,0c-0.186,0.489-0.166,1.018,0.056,1.559
		c0.089,0.208,0.202,0.421,0.354,0.636c0.433,0.634,0.874,1.084,1.31,1.358c0.356,0.221,0.708,0.323,1.056,0.31
		c0.289-0.011,0.582-0.104,0.88-0.278c-0.708-0.649-1.324-1.351-1.859-2.098C119.479,101.7,119.043,100.947,118.672,100.147
		 M120.841,98.728c-0.476,0.196-0.894,0.412-1.25,0.643c0.367,0.834,0.81,1.624,1.343,2.365c0.518,0.725,1.118,1.399,1.807,2.02
		c0.255-0.287,0.509-0.626,0.761-1.025l0.979,0.618c-0.562,0.894-1.169,1.568-1.798,2.003c-0.538,0.372-1.1,0.571-1.675,0.593
		c-0.576,0.022-1.149-0.137-1.708-0.489c-0.568-0.356-1.123-0.913-1.648-1.68c-0.195-0.281-0.352-0.568-0.47-0.854
		c-0.335-0.817-0.357-1.632-0.068-2.405l0,0c0.278-0.744,0.846-1.429,1.697-2.014c0.449-0.309,0.981-0.593,1.591-0.845
		L120.841,98.728z"/>
</g>
</svg>
